<svg width="99" height="28" viewBox="0 0 99 28" fill="none" xmlns="http://www.w3.org/2000/svg">
<path d="M1.766 20V8.4H5.942C8.102 8.4 10.022 8.96 10.022 11.264C10.022 12.368 9.558 13.36 8.742 13.824C9.846 14.288 10.502 15.152 10.502 16.576C10.502 19.04 8.662 20 6.342 20H1.766ZM3.398 14.656V18.624H6.358C8.022 18.624 8.822 17.92 8.822 16.592C8.822 15.232 8.006 14.656 6.262 14.656H3.398ZM3.398 9.776V13.36H6.198C7.542 13.36 8.374 12.848 8.374 11.488C8.374 10.288 7.494 9.776 6.198 9.776H3.398ZM13.4402 15.728C13.4402 18.032 14.6882 18.928 16.0162 18.928C17.3442 18.928 18.5922 17.936 18.5922 15.728C18.5922 13.424 17.3442 12.528 16.0162 12.528C14.6882 12.528 13.4402 13.376 13.4402 15.728ZM16.0162 11.248C18.0162 11.248 20.1442 12.608 20.1442 15.728C20.1442 18.848 18.0162 20.208 16.0162 20.208C14.0162 20.208 11.8882 18.848 11.8882 15.728C11.8882 12.608 14.0162 11.248 16.0162 11.248ZM23.3417 11.392V12.688C23.8377 11.872 24.6697 11.248 26.1257 11.248C28.2057 11.248 28.9577 12.592 28.9577 14.56V20H27.5017V14.992C27.5017 13.664 27.2777 12.512 25.6137 12.512C24.2057 12.512 23.3417 13.472 23.3417 15.328V20H21.8857V11.392H23.3417ZM36.4637 20V18.768C35.9677 19.584 35.1837 20.208 33.7597 20.208C31.7757 20.208 31.0077 18.864 31.0077 16.896V11.392H32.4637V16.464C32.4637 17.792 32.6717 18.944 34.2717 18.944C35.6637 18.944 36.4637 17.984 36.4637 16.128V11.392H37.9197V20H36.4637ZM46.6775 13.904H45.1575C44.9175 12.88 44.1495 12.48 43.1255 12.48C42.2775 12.48 41.3175 12.784 41.3175 13.568C41.3175 14.256 41.7975 14.56 42.6295 14.736L43.8455 14.976C45.4135 15.264 46.7895 15.888 46.7895 17.536C46.7895 19.248 45.2535 20.208 43.2855 20.208C41.0295 20.208 39.7655 18.72 39.5895 17.216H41.1255C41.3655 18.32 42.0375 18.976 43.3175 18.976C44.4215 18.976 45.3175 18.512 45.3175 17.696C45.3175 16.816 44.5015 16.48 43.5735 16.272L42.2935 16.016C41.1255 15.76 39.8455 15.248 39.8455 13.632C39.8455 12.112 41.3815 11.232 43.2855 11.232C45.1575 11.232 46.4055 12.256 46.6775 13.904ZM56.2358 16.176H49.6117C49.6597 18.032 51.0037 18.928 52.2677 18.928C53.5477 18.928 54.2517 18.352 54.6197 17.504H56.1237C55.7397 18.976 54.3637 20.208 52.2677 20.208C49.5477 20.208 48.0437 18.256 48.0437 15.712C48.0437 12.976 49.8677 11.248 52.2197 11.248C54.8597 11.248 56.4117 13.44 56.2358 16.176ZM52.2197 12.496C50.9397 12.496 49.7557 13.2 49.6277 14.928H54.6997C54.6517 13.712 53.7717 12.496 52.2197 12.496ZM64.4119 13.904H62.8919C62.6519 12.88 61.8839 12.48 60.8599 12.48C60.0119 12.48 59.0519 12.784 59.0519 13.568C59.0519 14.256 59.5319 14.56 60.3639 14.736L61.5799 14.976C63.1479 15.264 64.5239 15.888 64.5239 17.536C64.5239 19.248 62.9879 20.208 61.0199 20.208C58.7639 20.208 57.4999 18.72 57.3239 17.216H58.8599C59.0999 18.32 59.7719 18.976 61.0519 18.976C62.1559 18.976 63.0519 18.512 63.0519 17.696C63.0519 16.816 62.2359 16.48 61.3079 16.272L60.0279 16.016C58.8599 15.76 57.5799 15.248 57.5799 13.632C57.5799 12.112 59.1159 11.232 61.0199 11.232C62.8919 11.232 64.1399 12.256 64.4119 13.904Z" fill="#1D1D1D"/>
<g clip-path="url(#clip0_0_17)">
<path fill-rule="evenodd" clip-rule="evenodd" d="M77.4847 20.9645C74.9856 18.3467 75.6848 13.5071 79.0997 10.0959C82.5379 6.6614 87.4464 5.98354 90.0476 8.57071C90.1433 8.66633 90.2346 8.76506 90.3214 8.86673L91.1674 9.71179C93.7686 12.299 93.1239 17.2586 89.6858 20.6931C87.65 22.7267 85.1053 23.8 82.8208 23.8C81.2487 23.8 79.8011 23.2916 78.7379 22.2296L77.5052 20.9868C77.4979 20.9797 77.4911 20.9722 77.4847 20.9645ZM79.5182 10.5365C81.4409 8.6159 83.8386 7.59911 85.9534 7.59911C87.3785 7.59911 88.6565 8.06231 89.6065 9.01131C91.9703 11.3612 91.2803 15.8916 88.0797 19.0888C84.8791 22.286 80.3551 22.9639 77.9914 20.6141C75.639 18.2528 76.3175 13.7337 79.5182 10.5365ZM81.803 20.9529C80.6268 20.9529 79.575 20.5801 78.7946 19.8119C77.822 18.8403 77.4487 17.4055 77.7315 15.7673C78.0142 14.1631 78.8964 12.5587 80.2197 11.237C81.5429 9.91509 83.1489 9.03387 84.7548 8.75143C86.3835 8.45769 87.8311 8.84181 88.8037 9.81341C89.7764 10.785 90.1496 12.2199 89.8669 13.8579C89.5841 15.4623 88.702 17.0665 87.3787 18.3883C85.7049 20.0604 83.6239 20.9529 81.803 20.9529ZM85.8067 9.25982C85.5013 9.25982 85.1959 9.28242 84.868 9.35021C83.3864 9.61005 81.8935 10.4348 80.6607 11.6662C79.428 12.8976 78.6023 14.4003 78.3422 15.869C78.0934 17.3037 78.4101 18.5578 79.2357 19.3825C80.9661 21.1111 84.4382 20.4785 86.9603 17.959C88.1931 16.7276 89.0187 15.225 89.2788 13.7563C89.5276 12.3215 89.2109 11.0675 88.3853 10.2427C87.7407 9.59875 86.8472 9.25982 85.8067 9.25982Z" fill="#1D1D1D"/>
<path d="M93.4095 3.57935C93.8537 3.48243 94.1601 4.0132 93.8541 4.34942L92.0013 6.38494C91.8996 6.49673 91.8583 6.65088 91.8905 6.79856L92.4773 9.48777C92.5742 9.93195 92.0434 10.2384 91.7072 9.93236L89.6717 8.07959C89.5599 7.97783 89.4058 7.93653 89.2581 7.96876L86.5689 8.55555C86.1247 8.65247 85.8183 8.1217 86.1243 7.78548L87.9771 5.74996C88.0788 5.63817 88.1202 5.48402 88.0879 5.33634L87.5011 2.64713C87.4042 2.20294 87.935 1.8965 88.2712 2.20254L90.3067 4.05531C90.4185 4.15707 90.5727 4.19837 90.7203 4.16614L93.4095 3.57935Z" fill="#FFCF08"/>
<path d="M96.8931 8.67839C97.3373 8.58147 97.6438 9.11224 97.3378 9.44846L96.4849 10.3854C96.3831 10.4972 96.3418 10.6514 96.3741 10.799L96.6442 12.0369C96.7411 12.4811 96.2103 12.7875 95.8741 12.4815L94.9371 11.6287C94.8253 11.5269 94.6712 11.4856 94.5235 11.5178L93.2857 11.7879C92.8414 11.8849 92.535 11.3541 92.841 11.0178L93.6939 10.0809C93.7957 9.96911 93.8369 9.81496 93.8047 9.66728L93.5346 8.42943C93.4377 7.98523 93.9685 7.67879 94.3047 7.98482L95.2417 8.83767C95.3534 8.93942 95.5076 8.98072 95.6552 8.9485L96.8931 8.67839Z" fill="#FFCF08"/>
</g>
<defs>
<clipPath id="clip0_0_17">
<rect width="28" height="27" fill="white" transform="translate(70.39 0.5)"/>
</clipPath>
</defs>
</svg>
