<svg width="172" height="24" viewBox="0 0 172 24" fill="none" xmlns="http://www.w3.org/2000/svg">
<path d="M1.79909 18V6.36364H8.82182V7.61364H3.20818V11.5455H8.45818V12.7955H3.20818V16.75H8.91273V18H1.79909ZM10.6343 18L14.1798 13.5682L10.6798 9.27273H12.2707L15.1798 13H15.907V9.27273H17.248V13H17.9525L20.8616 9.27273H22.4525L18.9752 13.5682L22.498 18H20.8843L17.9298 14.25H17.248V18H15.907V14.25H15.2252L12.248 18H10.6343ZM27.7139 18.1818C26.873 18.1818 26.1476 17.9962 25.5377 17.625C24.9317 17.25 24.4639 16.7273 24.1343 16.0568C23.8086 15.3826 23.6457 14.5985 23.6457 13.7045C23.6457 12.8106 23.8086 12.0227 24.1343 11.3409C24.4639 10.6553 24.9222 10.1212 25.5093 9.73864C26.1002 9.35227 26.7896 9.15909 27.5775 9.15909C28.032 9.15909 28.4809 9.23485 28.9241 9.38636C29.3673 9.53788 29.7707 9.78409 30.1343 10.125C30.498 10.4621 30.7877 10.9091 31.0036 11.4659C31.2195 12.0227 31.3275 12.7083 31.3275 13.5227V14.0909H24.6002V12.9318H29.9639C29.9639 12.4394 29.8654 12 29.6684 11.6136C29.4752 11.2273 29.1987 10.9223 28.8389 10.6989C28.4828 10.4754 28.0623 10.3636 27.5775 10.3636C27.0434 10.3636 26.5813 10.4962 26.1911 10.7614C25.8048 11.0227 25.5074 11.3636 25.2991 11.7841C25.0908 12.2045 24.9866 12.6553 24.9866 13.1364V13.9091C24.9866 14.5682 25.1002 15.1269 25.3275 15.5852C25.5586 16.0398 25.8786 16.3864 26.2877 16.625C26.6968 16.8598 27.1722 16.9773 27.7139 16.9773C28.0661 16.9773 28.3843 16.928 28.6684 16.8295C28.9563 16.7273 29.2044 16.5758 29.4127 16.375C29.6211 16.1705 29.782 15.9167 29.8957 15.6136L31.1911 15.9773C31.0548 16.4167 30.8256 16.803 30.5036 17.1364C30.1817 17.4659 29.7839 17.7235 29.3105 17.9091C28.837 18.0909 28.3048 18.1818 27.7139 18.1818ZM32.4355 20.5V16.75H33.1627C33.3408 16.5644 33.4942 16.3636 33.623 16.1477C33.7517 15.9318 33.8635 15.6761 33.9582 15.3807C34.0567 15.0814 34.14 14.7178 34.2082 14.2898C34.2764 13.858 34.337 13.3371 34.39 12.7273L34.6855 9.27273H40.2309V16.75H41.5718V20.5H40.2309V18H33.7764V20.5H32.4355ZM34.6855 16.75H38.89V10.5227H35.9355L35.7082 12.7273C35.6135 13.6402 35.4961 14.4375 35.3559 15.1193C35.2158 15.8011 34.9923 16.3447 34.6855 16.75ZM47.0107 18.1818C46.1698 18.1818 45.4445 17.9962 44.8346 17.625C44.2285 17.25 43.7607 16.7273 43.4312 16.0568C43.1054 15.3826 42.9426 14.5985 42.9426 13.7045C42.9426 12.8106 43.1054 12.0227 43.4312 11.3409C43.7607 10.6553 44.2191 10.1212 44.8062 9.73864C45.3971 9.35227 46.0865 9.15909 46.8744 9.15909C47.3289 9.15909 47.7778 9.23485 48.221 9.38636C48.6641 9.53788 49.0676 9.78409 49.4312 10.125C49.7948 10.4621 50.0846 10.9091 50.3005 11.4659C50.5164 12.0227 50.6244 12.7083 50.6244 13.5227V14.0909H43.8971V12.9318H49.2607C49.2607 12.4394 49.1623 12 48.9653 11.6136C48.7721 11.2273 48.4956 10.9223 48.1357 10.6989C47.7797 10.4754 47.3592 10.3636 46.8744 10.3636C46.3403 10.3636 45.8782 10.4962 45.488 10.7614C45.1016 11.0227 44.8043 11.3636 44.596 11.7841C44.3876 12.2045 44.2835 12.6553 44.2835 13.1364V13.9091C44.2835 14.5682 44.3971 15.1269 44.6244 15.5852C44.8554 16.0398 45.1755 16.3864 45.5846 16.625C45.9937 16.8598 46.4691 16.9773 47.0107 16.9773C47.363 16.9773 47.6812 16.928 47.9653 16.8295C48.2532 16.7273 48.5013 16.5758 48.7096 16.375C48.9179 16.1705 49.0789 15.9167 49.1926 15.6136L50.488 15.9773C50.3516 16.4167 50.1225 16.803 49.8005 17.1364C49.4785 17.4659 49.0808 17.7235 48.6073 17.9091C48.1338 18.0909 47.6016 18.1818 47.0107 18.1818ZM58.5051 13.0227V14.2727H53.6869V13.0227H58.5051ZM54.0051 9.27273V18H52.6641V9.27273H54.0051ZM59.5278 9.27273V18H58.1869V9.27273H59.5278ZM65.6357 18.1818C64.7948 18.1818 64.0695 17.9962 63.4596 17.625C62.8535 17.25 62.3857 16.7273 62.0562 16.0568C61.7304 15.3826 61.5676 14.5985 61.5676 13.7045C61.5676 12.8106 61.7304 12.0227 62.0562 11.3409C62.3857 10.6553 62.8441 10.1212 63.4312 9.73864C64.0221 9.35227 64.7115 9.15909 65.4994 9.15909C65.9539 9.15909 66.4028 9.23485 66.846 9.38636C67.2891 9.53788 67.6926 9.78409 68.0562 10.125C68.4198 10.4621 68.7096 10.9091 68.9255 11.4659C69.1414 12.0227 69.2494 12.7083 69.2494 13.5227V14.0909H62.5221V12.9318H67.8857C67.8857 12.4394 67.7873 12 67.5903 11.6136C67.3971 11.2273 67.1206 10.9223 66.7607 10.6989C66.4047 10.4754 65.9842 10.3636 65.4994 10.3636C64.9653 10.3636 64.5032 10.4962 64.113 10.7614C63.7266 11.0227 63.4293 11.3636 63.221 11.7841C63.0126 12.2045 62.9085 12.6553 62.9085 13.1364V13.9091C62.9085 14.5682 63.0221 15.1269 63.2494 15.5852C63.4804 16.0398 63.8005 16.3864 64.2096 16.625C64.6187 16.8598 65.0941 16.9773 65.6357 16.9773C65.988 16.9773 66.3062 16.928 66.5903 16.8295C66.8782 16.7273 67.1263 16.5758 67.3346 16.375C67.5429 16.1705 67.7039 15.9167 67.8176 15.6136L69.113 15.9773C68.9766 16.4167 68.7475 16.803 68.4255 17.1364C68.1035 17.4659 67.7058 17.7235 67.2323 17.9091C66.7588 18.0909 66.2266 18.1818 65.6357 18.1818ZM71.2891 18V9.27273H74.8573C75.7967 9.27273 76.5429 9.48485 77.096 9.90909C77.649 10.3333 77.9255 10.8939 77.9255 11.5909C77.9255 12.1212 77.7683 12.5322 77.4539 12.8239C77.1395 13.1117 76.7361 13.3068 76.2437 13.4091C76.5657 13.4545 76.8782 13.5682 77.1812 13.75C77.488 13.9318 77.7418 14.1818 77.9426 14.5C78.1433 14.8144 78.2437 15.2008 78.2437 15.6591C78.2437 16.1061 78.1301 16.5057 77.9028 16.858C77.6755 17.2102 77.3498 17.4886 76.9255 17.6932C76.5013 17.8977 75.9937 18 75.4028 18H71.2891ZM72.5619 16.7727H75.4028C75.8649 16.7727 76.2266 16.6629 76.488 16.4432C76.7494 16.2235 76.8801 15.9242 76.8801 15.5455C76.8801 15.0947 76.7494 14.7405 76.488 14.483C76.2266 14.2216 75.8649 14.0909 75.4028 14.0909H72.5619V16.7727ZM72.5619 12.9318H74.8573C75.2172 12.9318 75.5259 12.8826 75.7835 12.7841C76.041 12.6818 76.238 12.5379 76.3744 12.3523C76.5145 12.1629 76.5846 11.9394 76.5846 11.6818C76.5846 11.3144 76.4312 11.0265 76.1244 10.8182C75.8176 10.6061 75.3952 10.5 74.8573 10.5H72.5619V12.9318ZM86.1144 13.0227V14.2727H81.2962V13.0227H86.1144ZM81.6144 9.27273V18H80.2735V9.27273H81.6144ZM87.1372 9.27273V18H85.7962V9.27273H87.1372ZM90.7451 12.4318H93.2451C94.2678 12.4318 95.05 12.6913 95.5917 13.2102C96.1334 13.7292 96.4042 14.3864 96.4042 15.1818C96.4042 15.7045 96.283 16.1799 96.0406 16.608C95.7981 17.0322 95.4421 17.3712 94.9724 17.625C94.5027 17.875 93.9269 18 93.2451 18H89.586V9.27273H90.9269V16.75H93.2451C93.7754 16.75 94.211 16.6098 94.5519 16.3295C94.8928 16.0492 95.0633 15.6894 95.0633 15.25C95.0633 14.7879 94.8928 14.411 94.5519 14.1193C94.211 13.8277 93.7754 13.6818 93.2451 13.6818H90.7451V12.4318ZM97.7906 18V9.27273H99.1315V18H97.7906ZM102.927 16.0227L107.131 9.27273H108.677V18H107.336V11.25L103.154 18H101.586V9.27273H102.927V16.0227ZM106.245 6.36364H107.495C107.495 6.97727 107.283 7.47917 106.859 7.86932C106.435 8.25947 105.859 8.45455 105.131 8.45455C104.416 8.45455 103.845 8.25947 103.421 7.86932C103.001 7.47917 102.791 6.97727 102.791 6.36364H104.041C104.041 6.65909 104.122 6.91856 104.285 7.14205C104.452 7.36553 104.734 7.47727 105.131 7.47727C105.529 7.47727 105.813 7.36553 105.984 7.14205C106.158 6.91856 106.245 6.65909 106.245 6.36364ZM115.133 10.5227V9.27273H122.224V10.5227H119.36V18H118.019V10.5227H115.133ZM125.043 21.2727C124.816 21.2727 124.613 21.2538 124.435 21.2159C124.257 21.1818 124.134 21.1477 124.066 21.1136L124.407 19.9318C124.733 20.0152 125.021 20.0455 125.271 20.0227C125.521 20 125.742 19.8883 125.935 19.6875C126.132 19.4905 126.312 19.1705 126.475 18.7273L126.725 18.0455L123.498 9.27273H124.952L127.362 16.2273H127.452L129.862 9.27273H131.316L127.612 19.2727C127.445 19.7235 127.238 20.0966 126.992 20.392C126.746 20.6913 126.46 20.9129 126.134 21.0568C125.812 21.2008 125.449 21.2727 125.043 21.2727ZM133.086 21.2727V9.27273H134.381V10.6591H134.541C134.639 10.5076 134.775 10.3144 134.95 10.0795C135.128 9.84091 135.381 9.62879 135.711 9.44318C136.044 9.25379 136.495 9.15909 137.063 9.15909C137.798 9.15909 138.446 9.3428 139.006 9.71023C139.567 10.0777 140.005 10.5985 140.319 11.2727C140.633 11.947 140.791 12.7424 140.791 13.6591C140.791 14.5833 140.633 15.3845 140.319 16.0625C140.005 16.7367 139.569 17.2595 139.012 17.6307C138.455 17.9981 137.813 18.1818 137.086 18.1818C136.525 18.1818 136.077 18.089 135.739 17.9034C135.402 17.714 135.143 17.5 134.961 17.2614C134.779 17.0189 134.639 16.8182 134.541 16.6591H134.427V21.2727H133.086ZM134.404 13.6364C134.404 14.2955 134.501 14.8769 134.694 15.3807C134.887 15.8807 135.169 16.2727 135.541 16.5568C135.912 16.8371 136.366 16.9773 136.904 16.9773C137.465 16.9773 137.933 16.8295 138.308 16.5341C138.686 16.2348 138.97 15.8333 139.16 15.3295C139.353 14.822 139.45 14.2576 139.45 13.6364C139.45 13.0227 139.355 12.4697 139.166 11.9773C138.98 11.4811 138.698 11.089 138.319 10.8011C137.944 10.5095 137.472 10.3636 136.904 10.3636C136.359 10.3636 135.9 10.5019 135.529 10.7784C135.158 11.0511 134.878 11.4337 134.688 11.9261C134.499 12.4148 134.404 12.9848 134.404 13.6364Z" fill="#1D1D1D"/>
<g clip-path="url(#clip0_0_17)">
<path d="M168.39 6C168.39 4.34297 169.733 3 171.39 3C169.733 3 168.39 1.65703 168.39 0C168.39 1.65703 167.047 3 165.39 3C167.047 3 168.39 4.34297 168.39 6Z" fill="black"/>
<path d="M169.14 9C169.14 10.2427 168.133 11.25 166.89 11.25C168.133 11.25 169.14 12.2573 169.14 13.5C169.14 12.2573 170.147 11.25 171.39 11.25C170.147 11.25 169.14 10.2427 169.14 9Z" fill="black"/>
<path d="M157.89 9C157.89 6.51469 159.905 4.5 162.39 4.5C159.905 4.5 157.89 2.48531 157.89 0C157.89 2.48531 155.875 4.5 153.39 4.5C155.875 4.5 157.89 6.51469 157.89 9Z" fill="black"/>
<path d="M163.89 4.5L147.39 21L150.39 24L166.89 7.5L163.89 4.5ZM161.329 9.31078L163.45 7.18969L164.2 7.93969L162.079 10.0608L161.329 9.31078Z" fill="black"/>
</g>
<defs>
<clipPath id="clip0_0_17">
<rect width="24" height="24" fill="white" transform="translate(147.39)"/>
</clipPath>
</defs>
</svg>
