<svg width="127" height="49" viewBox="0 0 127 49" fill="none" xmlns="http://www.w3.org/2000/svg">
<g clip-path="url(#clip0_0_50)">
<path fill-rule="evenodd" clip-rule="evenodd" d="M33.7818 18.0905C31.8338 16.0982 28.6283 16.0982 26.6803 18.0905L26.3 18.4794L25.9197 18.0905C23.9717 16.0982 20.7662 16.0982 18.8182 18.0905C16.9311 20.0205 16.9311 23.1043 18.8182 25.0342L25.1607 31.5209C25.7857 32.1601 26.8143 32.1601 27.4393 31.5209L33.7818 25.0342C35.6689 23.1043 35.6689 20.0205 33.7818 18.0905Z" fill="#1D1D1D"/>
</g>
<path d="M46.5871 30.5V19.625H53.6521V20.945H48.1171V24.245H53.3371V25.565H48.1171V30.5H46.5871ZM59.8556 27.125V26.615C57.3806 26.855 55.8056 27.23 55.8056 28.34C55.8056 29.105 56.3906 29.615 57.3656 29.615C58.6406 29.615 59.8556 29.03 59.8556 27.125ZM57.0656 30.695C55.5506 30.695 54.2906 29.855 54.2906 28.37C54.2906 26.465 56.4506 25.895 59.7506 25.535V25.34C59.7506 23.855 58.9406 23.375 57.9206 23.375C56.7806 23.375 56.1356 23.975 56.0756 24.98H54.6656C54.7856 23.24 56.3456 22.265 57.9056 22.265C60.1406 22.265 61.1306 23.315 61.1156 25.595L61.1006 27.455C61.0856 28.82 61.1456 29.735 61.3106 30.5H59.9306C59.8856 30.2 59.8406 29.87 59.8256 29.39C59.3306 30.23 58.5056 30.695 57.0656 30.695ZM63.5113 22.43L65.7013 28.61L67.8913 22.43H69.3013L66.2563 30.5H65.0413L61.9963 22.43H63.5113ZM71.1694 26.495C71.1694 28.655 72.3394 29.495 73.5844 29.495C74.8294 29.495 75.9994 28.565 75.9994 26.495C75.9994 24.335 74.8294 23.495 73.5844 23.495C72.3394 23.495 71.1694 24.29 71.1694 26.495ZM73.5844 22.295C75.4594 22.295 77.4544 23.57 77.4544 26.495C77.4544 29.42 75.4594 30.695 73.5844 30.695C71.7094 30.695 69.7144 29.42 69.7144 26.495C69.7144 23.57 71.7094 22.295 73.5844 22.295ZM83.107 22.4V23.855C82.822 23.81 82.567 23.795 82.342 23.795C81.082 23.795 80.452 24.485 80.452 26.27V30.5H79.087V22.43H80.422V23.84C80.827 22.925 81.637 22.43 82.702 22.385C82.837 22.385 82.942 22.385 83.107 22.4ZM84.4191 22.43H85.7841V30.5H84.4191V22.43ZM84.4191 19.625H85.7841V21.275H84.4191V19.625ZM88.3393 22.43V20.405H89.7043V22.43H91.2343V23.525H89.7043V28.31C89.7043 29.15 89.7643 29.36 90.5443 29.36H91.2343V30.5H90.2443C88.6993 30.5 88.3393 30.155 88.3393 28.475V23.525H87.0643V22.43H88.3393ZM99.879 26.915H93.669C93.714 28.655 94.974 29.495 96.159 29.495C97.359 29.495 98.019 28.955 98.364 28.16H99.774C99.414 29.54 98.124 30.695 96.159 30.695C93.609 30.695 92.199 28.865 92.199 26.48C92.199 23.915 93.909 22.295 96.114 22.295C98.589 22.295 100.044 24.35 99.879 26.915ZM96.114 23.465C94.914 23.465 93.804 24.125 93.684 25.745H98.439C98.394 24.605 97.569 23.465 96.114 23.465ZM107.544 24.785H106.119C105.894 23.825 105.174 23.45 104.214 23.45C103.419 23.45 102.519 23.735 102.519 24.47C102.519 25.115 102.969 25.4 103.749 25.565L104.889 25.79C106.359 26.06 107.649 26.645 107.649 28.19C107.649 29.795 106.209 30.695 104.364 30.695C102.249 30.695 101.064 29.3 100.899 27.89H102.339C102.564 28.925 103.194 29.54 104.394 29.54C105.429 29.54 106.269 29.105 106.269 28.34C106.269 27.515 105.504 27.2 104.634 27.005L103.434 26.765C102.339 26.525 101.139 26.045 101.139 24.53C101.139 23.105 102.579 22.28 104.364 22.28C106.119 22.28 107.289 23.24 107.544 24.785Z" fill="#1D1D1D"/>
<defs>
<clipPath id="clip0_0_50">
<rect width="20" height="20" fill="white" transform="translate(16.3 14.5)"/>
</clipPath>
</defs>
</svg>
