<svg width="144" height="49" viewBox="0 0 144 49" fill="none" xmlns="http://www.w3.org/2000/svg">
<g clip-path="url(#clip0_0_50)">
<path fill-rule="evenodd" clip-rule="evenodd" d="M33.7818 18.0905C31.8338 16.0982 28.6283 16.0982 26.6803 18.0905L26.3 18.4794L25.9197 18.0905C23.9717 16.0982 20.7662 16.0982 18.8182 18.0905C16.9311 20.0205 16.9311 23.1043 18.8182 25.0342L25.1607 31.5209C25.7857 32.1601 26.8143 32.1601 27.4393 31.5209L33.7818 25.0342C35.6689 23.1043 35.6689 20.0205 33.7818 18.0905Z" fill="#1D1D1D"/>
</g>
<path d="M46.3329 18.5909H47.6326V27.1776H47.7392L53.7051 18.5909H54.9835V29.5H53.6625V20.9347H53.5559L47.6113 29.5H46.3329V18.5909ZM56.9451 27.4119H58.2874C58.3158 27.7812 58.4827 28.0618 58.7881 28.2536C59.097 28.4453 59.4983 28.5412 59.9919 28.5412C60.4962 28.5412 60.9277 28.4382 61.2863 28.2322C61.645 28.0227 61.8243 27.6854 61.8243 27.2202C61.8243 26.9467 61.7568 26.7088 61.6219 26.5064C61.487 26.3004 61.297 26.1406 61.0519 26.027C60.8069 25.9134 60.5175 25.8565 60.1837 25.8565H58.7774V24.7273H60.1837C60.6844 24.7273 61.0537 24.6136 61.2916 24.3864C61.5331 24.1591 61.6539 23.875 61.6539 23.5341C61.6539 23.1683 61.5242 22.8754 61.265 22.6552C61.0058 22.4315 60.6382 22.3196 60.1624 22.3196C59.683 22.3196 59.2835 22.4279 58.9639 22.6445C58.6443 22.8576 58.4756 23.1328 58.4578 23.4702H57.1368C57.151 23.0298 57.286 22.641 57.5416 22.3036C57.7973 21.9627 58.1453 21.6964 58.5857 21.5046C59.026 21.3093 59.5303 21.2116 60.0985 21.2116C60.6737 21.2116 61.1727 21.3129 61.5953 21.5153C62.0214 21.7141 62.3499 21.9858 62.5807 22.3303C62.8151 22.6712 62.9323 23.0582 62.9323 23.4915C62.9323 23.9531 62.8027 24.326 62.5434 24.6101C62.2842 24.8942 61.9593 25.0966 61.5686 25.2173V25.3026C61.8776 25.3239 62.1457 25.4233 62.373 25.6009C62.6038 25.7749 62.7831 26.0039 62.911 26.288C63.0388 26.5685 63.1027 26.8793 63.1027 27.2202C63.1027 27.7173 62.9696 28.1506 62.7032 28.5199C62.4369 28.8857 62.0711 29.1697 61.6059 29.3722C61.1407 29.571 60.6098 29.6705 60.0132 29.6705C59.4344 29.6705 58.9159 29.5763 58.4578 29.3881C57.9997 29.1964 57.6357 28.9318 57.3659 28.5945C57.0995 28.2536 56.9593 27.8594 56.9451 27.4119ZM70.941 18.25L71.5802 19.017C71.3316 19.2585 71.044 19.4272 70.7172 19.5231C70.3905 19.619 70.0212 19.6776 69.6093 19.6989C69.1974 19.7202 68.7393 19.7415 68.235 19.7628C67.6668 19.7841 67.1963 19.9226 66.8234 20.1783C66.4506 20.4339 66.1629 20.8033 65.9605 21.2862C65.7581 21.7692 65.6285 22.3622 65.5716 23.0653H65.6782C65.9552 22.554 66.3387 22.1776 66.8288 21.9361C67.3188 21.6946 67.8444 21.5739 68.4055 21.5739C69.0447 21.5739 69.6199 21.723 70.1313 22.0213C70.6427 22.3196 71.0475 22.7617 71.3458 23.3477C71.6441 23.9336 71.7932 24.6562 71.7932 25.5156C71.7932 26.3714 71.6405 27.1101 71.3351 27.7315C71.0333 28.353 70.6089 28.8324 70.0621 29.1697C69.5187 29.5036 68.8813 29.6705 68.1498 29.6705C67.4182 29.6705 66.7773 29.4982 66.2268 29.1538C65.6764 28.8058 65.2485 28.2908 64.9431 27.609C64.6377 26.9237 64.485 26.0767 64.485 25.0682V24.1946C64.485 22.3729 64.794 20.9915 65.4118 20.0504C66.0333 19.1094 66.9672 18.6229 68.2137 18.5909C68.654 18.5767 69.0464 18.5732 69.3909 18.5803C69.7354 18.5874 70.0354 18.5714 70.2911 18.5323C70.5468 18.4933 70.7634 18.3991 70.941 18.25ZM68.1498 28.5412C68.6434 28.5412 69.0677 28.4169 69.4229 28.1683C69.7815 27.9197 70.0567 27.57 70.2485 27.119C70.4403 26.6644 70.5361 26.13 70.5361 25.5156C70.5361 24.919 70.4385 24.4112 70.2432 23.9922C70.0514 23.5732 69.7762 23.2536 69.4175 23.0334C69.0589 22.8132 68.6292 22.7031 68.1285 22.7031C67.7627 22.7031 67.4342 22.7653 67.143 22.8896C66.8518 23.0138 66.6033 23.1967 66.3973 23.4382C66.1913 23.6797 66.0315 23.9744 65.9179 24.3224C65.8078 24.6705 65.7492 25.0682 65.7421 25.5156C65.7421 26.4318 65.9569 27.1651 66.3866 27.7156C66.8163 28.266 67.404 28.5412 68.1498 28.5412ZM73.7162 32.5682V21.3182H74.9307V22.6179H75.0798C75.1721 22.4759 75.3 22.2947 75.4633 22.0746C75.6302 21.8509 75.8682 21.652 76.1771 21.478C76.4896 21.3004 76.9122 21.2116 77.4449 21.2116C78.1338 21.2116 78.741 21.3839 79.2666 21.7283C79.7922 22.0728 80.2023 22.5611 80.4971 23.1932C80.7918 23.8253 80.9392 24.571 80.9392 25.4304C80.9392 26.2969 80.7918 27.0479 80.4971 27.6836C80.2023 28.3157 79.794 28.8058 79.2719 29.1538C78.7499 29.4982 78.148 29.6705 77.4662 29.6705C76.9406 29.6705 76.5198 29.5835 76.2038 29.4094C75.8877 29.2319 75.6444 29.0312 75.474 28.8075C75.3035 28.5803 75.1721 28.392 75.0798 28.2429H74.9733V32.5682H73.7162ZM74.952 25.4091C74.952 26.027 75.0425 26.5721 75.2236 27.0444C75.4047 27.5131 75.6693 27.8807 76.0173 28.147C76.3653 28.4098 76.7915 28.5412 77.2957 28.5412C77.8213 28.5412 78.2599 28.4027 78.6114 28.1257C78.9665 27.8452 79.2329 27.4687 79.4104 26.9964C79.5915 26.5206 79.6821 25.9915 79.6821 25.4091C79.6821 24.8338 79.5933 24.3153 79.4158 23.8537C79.2417 23.3885 78.9772 23.021 78.6221 22.7511C78.2705 22.4776 77.8284 22.3409 77.2957 22.3409C76.7844 22.3409 76.3547 22.4705 76.0067 22.7298C75.6587 22.9854 75.3959 23.3441 75.2183 23.8058C75.0408 24.2638 74.952 24.7983 74.952 25.4091ZM85.2645 29.6918C84.746 29.6918 84.2755 29.5941 83.8529 29.3988C83.4303 29.1999 83.0947 28.9141 82.8462 28.5412C82.5976 28.1648 82.4733 27.7102 82.4733 27.1776C82.4733 26.7088 82.5656 26.3288 82.7503 26.0376C82.9349 25.7429 83.1817 25.5121 83.4907 25.3452C83.7996 25.1783 84.1405 25.054 84.5134 24.9723C84.8898 24.8871 85.268 24.8196 85.648 24.7699C86.1452 24.706 86.5482 24.658 86.8572 24.6261C87.1697 24.5906 87.3969 24.532 87.539 24.4503C87.6846 24.3686 87.7574 24.2266 87.7574 24.0241V23.9815C87.7574 23.456 87.6136 23.0476 87.3259 22.7564C87.0418 22.4652 86.6104 22.3196 86.0315 22.3196C85.4314 22.3196 84.9609 22.451 84.6199 22.7138C84.279 22.9766 84.0393 23.2571 83.9008 23.5554L82.7077 23.1293C82.9207 22.6321 83.2048 22.245 83.5599 21.968C83.9186 21.6875 84.3092 21.4922 84.7318 21.3821C85.1579 21.2685 85.577 21.2116 85.9889 21.2116C86.2517 21.2116 86.5535 21.2436 86.8944 21.3075C87.2389 21.3679 87.5709 21.494 87.8905 21.6857C88.2137 21.8775 88.4818 22.1669 88.6949 22.554C88.9079 22.9411 89.0145 23.4595 89.0145 24.1094V29.5H87.7574V28.392H87.6935C87.6082 28.5696 87.4662 28.7596 87.2673 28.962C87.0685 29.1644 86.8039 29.3366 86.4736 29.4787C86.1434 29.6207 85.7403 29.6918 85.2645 29.6918ZM85.4562 28.5625C85.9534 28.5625 86.3724 28.4648 86.7133 28.2695C87.0578 28.0742 87.317 27.8221 87.491 27.5131C87.6686 27.2042 87.7574 26.8793 87.7574 26.5384V25.3878C87.7041 25.4517 87.5869 25.5103 87.4058 25.5636C87.2283 25.6133 87.0223 25.6577 86.7879 25.6967C86.5571 25.7322 86.3316 25.7642 86.1114 25.7926C85.8948 25.8175 85.719 25.8388 85.5841 25.8565C85.2574 25.8991 84.952 25.9684 84.6679 26.0643C84.3873 26.1566 84.1601 26.2969 83.9861 26.4851C83.8156 26.6697 83.7304 26.9219 83.7304 27.2415C83.7304 27.6783 83.892 28.0085 84.2151 28.2322C84.5418 28.4524 84.9555 28.5625 85.4562 28.5625ZM96.7848 24.8338V26.0057H92.2678V24.8338H96.7848ZM92.5661 21.3182V29.5H91.309V21.3182H92.5661ZM97.7436 21.3182V29.5H96.4865V21.3182H97.7436ZM105.515 24.8338V26.0057H100.998V24.8338H105.515ZM101.297 21.3182V29.5H100.039V21.3182H101.297ZM106.474 21.3182V29.5H105.217V21.3182H106.474ZM112.094 29.6705C111.355 29.6705 110.707 29.4947 110.15 29.1431C109.596 28.7915 109.162 28.2997 108.85 27.6676C108.541 27.0355 108.386 26.2969 108.386 25.4517C108.386 24.5994 108.541 23.8555 108.85 23.2198C109.162 22.5842 109.596 22.0906 110.15 21.739C110.707 21.3874 111.355 21.2116 112.094 21.2116C112.832 21.2116 113.479 21.3874 114.033 21.739C114.59 22.0906 115.023 22.5842 115.332 23.2198C115.645 23.8555 115.801 24.5994 115.801 25.4517C115.801 26.2969 115.645 27.0355 115.332 27.6676C115.023 28.2997 114.59 28.7915 114.033 29.1431C113.479 29.4947 112.832 29.6705 112.094 29.6705ZM112.094 28.5412C112.655 28.5412 113.116 28.3974 113.479 28.1097C113.841 27.8221 114.109 27.4439 114.283 26.9751C114.457 26.5064 114.544 25.9986 114.544 25.4517C114.544 24.9048 114.457 24.3952 114.283 23.9229C114.109 23.4506 113.841 23.0689 113.479 22.7777C113.116 22.4865 112.655 22.3409 112.094 22.3409C111.533 22.3409 111.071 22.4865 110.709 22.7777C110.347 23.0689 110.078 23.4506 109.904 23.9229C109.73 24.3952 109.643 24.9048 109.643 25.4517C109.643 25.9986 109.73 26.5064 109.904 26.9751C110.078 27.4439 110.347 27.8221 110.709 28.1097C111.071 28.3974 111.533 28.5412 112.094 28.5412ZM121.15 29.6705C120.362 29.6705 119.682 29.4964 119.11 29.1484C118.542 28.7969 118.104 28.3068 117.795 27.6783C117.489 27.0462 117.337 26.3111 117.337 25.473C117.337 24.6349 117.489 23.8963 117.795 23.2571C118.104 22.6143 118.533 22.1136 119.084 21.755C119.638 21.3928 120.284 21.2116 121.023 21.2116C121.449 21.2116 121.87 21.2827 122.285 21.4247C122.701 21.5668 123.079 21.7976 123.42 22.1172C123.761 22.4332 124.032 22.8523 124.235 23.3743C124.437 23.8963 124.538 24.5391 124.538 25.3026V25.8352H118.231V24.7486H123.26C123.26 24.2869 123.168 23.875 122.983 23.5128C122.802 23.1506 122.543 22.8647 122.205 22.6552C121.871 22.4457 121.477 22.3409 121.023 22.3409C120.522 22.3409 120.089 22.4652 119.723 22.7138C119.361 22.9588 119.082 23.2784 118.887 23.6726C118.691 24.0668 118.594 24.4893 118.594 24.9403V25.6648C118.594 26.2827 118.7 26.8065 118.913 27.2362C119.13 27.6623 119.43 27.9872 119.813 28.2109C120.197 28.4311 120.643 28.5412 121.15 28.5412C121.481 28.5412 121.779 28.495 122.045 28.4027C122.315 28.3068 122.548 28.1648 122.743 27.9766C122.938 27.7848 123.089 27.5469 123.196 27.2628L124.41 27.6037C124.283 28.0156 124.068 28.3778 123.766 28.6903C123.464 28.9993 123.091 29.2408 122.647 29.4148C122.203 29.5852 121.704 29.6705 121.15 29.6705Z" fill="#1D1D1D"/>
<defs>
<clipPath id="clip0_0_50">
<rect width="20" height="20" fill="white" transform="translate(16.3 14.5)"/>
</clipPath>
</defs>
</svg>
