<svg width="24" height="24" viewBox="0 0 24 24" fill="none" xmlns="http://www.w3.org/2000/svg">
<path fill-rule="evenodd" clip-rule="evenodd" d="M11 7C11 5.34315 12.3431 4 14 4C15.3999 4 16.5759 4.9589 16.907 6.25572C16.9374 6.25195 16.9685 6.25 17 6.25H21C21.4142 6.25 21.75 6.58579 21.75 7C21.75 7.41421 21.4142 7.75 21 7.75H17C16.9685 7.75 16.9374 7.74805 16.907 7.74428C16.5759 9.0411 15.3999 10 14 10C12.3431 10 11 8.65685 11 7ZM3 6.25C2.58579 6.25 2.25 6.58579 2.25 7C2.25 7.41421 2.58579 7.75 3 7.75H8C8.41421 7.75 8.75 7.41421 8.75 7C8.75 6.58579 8.41421 6.25 8 6.25H3ZM3 16.25C2.58579 16.25 2.25 16.5858 2.25 17C2.25 17.4142 2.58579 17.75 3 17.75H7C7.03151 17.75 7.06256 17.7481 7.09305 17.7443C7.42409 19.0411 8.60006 20 10 20C11.6569 20 13 18.6569 13 17C13 15.3431 11.6569 14 10 14C8.60006 14 7.42409 14.9589 7.09305 16.2557C7.06256 16.2519 7.03151 16.25 7 16.25H3ZM16 16.25C15.5858 16.25 15.25 16.5858 15.25 17C15.25 17.4142 15.5858 17.75 16 17.75H21C21.4142 17.75 21.75 17.4142 21.75 17C21.75 16.5858 21.4142 16.25 21 16.25H16Z" fill="#1D1D1D"/>
</svg>
