<svg width="176" height="48" viewBox="0 0 176 48" fill="none" xmlns="http://www.w3.org/2000/svg">
<path d="M12.5938 30L8.59375 24.6591H7.16193V30H5.75284V18.3636H7.16193V23.4091H7.77557L12.4347 18.3636H14.1165L9.41193 23.4773L14.2756 30H12.5938ZM16.1378 33.2727C15.9105 33.2727 15.7079 33.2538 15.5298 33.2159C15.3518 33.1818 15.2287 33.1477 15.1605 33.1136L15.5014 31.9318C15.8272 32.0152 16.1151 32.0455 16.3651 32.0227C16.6151 32 16.8366 31.8883 17.0298 31.6875C17.2268 31.4905 17.4067 31.1705 17.5696 30.7273L17.8196 30.0455L14.5923 21.2727H16.0469L18.456 28.2273H18.5469L20.956 21.2727H22.4105L18.706 31.2727C18.5393 31.7235 18.3329 32.0966 18.0866 32.392C17.8404 32.6913 17.5545 32.9129 17.2287 33.0568C16.9067 33.2008 16.5431 33.2727 16.1378 33.2727ZM24.1804 30V21.2727H31.044V30H29.7031V22.5227H25.5213V30H24.1804ZM32.7202 30V28.75H33.0384C33.2997 28.75 33.5175 28.6989 33.6918 28.5966C33.866 28.4905 34.0062 28.3068 34.1122 28.0455C34.2221 27.7803 34.3054 27.4129 34.3622 26.9432C34.4228 26.4697 34.4664 25.8674 34.4929 25.1364L34.652 21.2727H40.4702V30H39.1293V22.5227H35.9247L35.7884 25.6364C35.758 26.3523 35.6937 26.983 35.5952 27.5284C35.5005 28.0701 35.3546 28.5246 35.1577 28.892C34.9645 29.2595 34.7069 29.536 34.3849 29.7216C34.063 29.9072 33.6596 30 33.1747 30H32.7202ZM46.5895 30.1818C45.7486 30.1818 45.0232 29.9962 44.4134 29.625C43.8073 29.25 43.3395 28.7273 43.0099 28.0568C42.6842 27.3826 42.5213 26.5985 42.5213 25.7045C42.5213 24.8106 42.6842 24.0227 43.0099 23.3409C43.3395 22.6553 43.7978 22.1212 44.3849 21.7386C44.9759 21.3523 45.6652 21.1591 46.4531 21.1591C46.9077 21.1591 47.3565 21.2348 47.7997 21.3864C48.2429 21.5379 48.6463 21.7841 49.0099 22.125C49.3736 22.4621 49.6634 22.9091 49.8793 23.4659C50.0952 24.0227 50.2031 24.7083 50.2031 25.5227V26.0909H43.4759V24.9318H48.8395C48.8395 24.4394 48.741 24 48.544 23.6136C48.3509 23.2273 48.0743 22.9223 47.7145 22.6989C47.3584 22.4754 46.938 22.3636 46.4531 22.3636C45.919 22.3636 45.4569 22.4962 45.0668 22.7614C44.6804 23.0227 44.383 23.3636 44.1747 23.7841C43.9664 24.2045 43.8622 24.6553 43.8622 25.1364V25.9091C43.8622 26.5682 43.9759 27.1269 44.2031 27.5852C44.4342 28.0398 44.7543 28.3864 45.1634 28.625C45.5724 28.8598 46.0478 28.9773 46.5895 28.9773C46.9418 28.9773 47.2599 28.928 47.544 28.8295C47.8319 28.7273 48.08 28.5758 48.2884 28.375C48.4967 28.1705 48.6577 27.9167 48.7713 27.6136L50.0668 27.9773C49.9304 28.4167 49.7012 28.803 49.3793 29.1364C49.0573 29.4659 48.6596 29.7235 48.1861 29.9091C47.7126 30.0909 47.1804 30.1818 46.5895 30.1818ZM58.0838 25.0227V26.2727H53.2656V25.0227H58.0838ZM53.5838 21.2727V30H52.2429V21.2727H53.5838ZM59.1065 21.2727V30H57.7656V21.2727H59.1065ZM67.3963 25.0227V26.2727H62.5781V25.0227H67.3963ZM62.8963 21.2727V30H61.5554V21.2727H62.8963ZM68.419 21.2727V30H67.0781V21.2727H68.419ZM72.027 24.4318H74.527C75.5497 24.4318 76.3319 24.6913 76.8736 25.2102C77.4152 25.7292 77.6861 26.3864 77.6861 27.1818C77.6861 27.7045 77.5649 28.1799 77.3224 28.608C77.08 29.0322 76.724 29.3712 76.2543 29.625C75.7846 29.875 75.2088 30 74.527 30H70.8679V21.2727H72.2088V28.75H74.527C75.0573 28.75 75.4929 28.6098 75.8338 28.3295C76.1747 28.0492 76.3452 27.6894 76.3452 27.25C76.3452 26.7879 76.1747 26.411 75.8338 26.1193C75.4929 25.8277 75.0573 25.6818 74.527 25.6818H72.027V24.4318ZM79.0724 30V21.2727H80.4134V30H79.0724ZM86.527 30.1818C85.6861 30.1818 84.9607 29.9962 84.3509 29.625C83.7448 29.25 83.277 28.7273 82.9474 28.0568C82.6217 27.3826 82.4588 26.5985 82.4588 25.7045C82.4588 24.8106 82.6217 24.0227 82.9474 23.3409C83.277 22.6553 83.7353 22.1212 84.3224 21.7386C84.9134 21.3523 85.6027 21.1591 86.3906 21.1591C86.8452 21.1591 87.294 21.2348 87.7372 21.3864C88.1804 21.5379 88.5838 21.7841 88.9474 22.125C89.3111 22.4621 89.6009 22.9091 89.8168 23.4659C90.0327 24.0227 90.1406 24.7083 90.1406 25.5227V26.0909H83.4134V24.9318H88.777C88.777 24.4394 88.6785 24 88.4815 23.6136C88.2884 23.2273 88.0118 22.9223 87.652 22.6989C87.2959 22.4754 86.8755 22.3636 86.3906 22.3636C85.8565 22.3636 85.3944 22.4962 85.0043 22.7614C84.6179 23.0227 84.3205 23.3636 84.1122 23.7841C83.9039 24.2045 83.7997 24.6553 83.7997 25.1364V25.9091C83.7997 26.5682 83.9134 27.1269 84.1406 27.5852C84.3717 28.0398 84.6918 28.3864 85.1009 28.625C85.5099 28.8598 85.9853 28.9773 86.527 28.9773C86.8793 28.9773 87.1974 28.928 87.4815 28.8295C87.7694 28.7273 88.0175 28.5758 88.2259 28.375C88.4342 28.1705 88.5952 27.9167 88.7088 27.6136L90.0043 27.9773C89.8679 28.4167 89.6387 28.803 89.3168 29.1364C88.9948 29.4659 88.5971 29.7235 88.1236 29.9091C87.6501 30.0909 87.1179 30.1818 86.527 30.1818ZM96.1804 22.5227V21.2727H103.271V22.5227H100.408V30H99.0668V22.5227H96.1804ZM106.091 33.2727C105.864 33.2727 105.661 33.2538 105.483 33.2159C105.305 33.1818 105.182 33.1477 105.114 33.1136L105.455 31.9318C105.78 32.0152 106.068 32.0455 106.318 32.0227C106.568 32 106.79 31.8883 106.983 31.6875C107.18 31.4905 107.36 31.1705 107.523 30.7273L107.773 30.0455L104.545 21.2727H106L108.409 28.2273H108.5L110.909 21.2727H112.364L108.659 31.2727C108.492 31.7235 108.286 32.0966 108.04 32.392C107.794 32.6913 107.508 32.9129 107.182 33.0568C106.86 33.2008 106.496 33.2727 106.091 33.2727ZM114.134 33.2727V21.2727H115.429V22.6591H115.588C115.687 22.5076 115.823 22.3144 115.997 22.0795C116.175 21.8409 116.429 21.6288 116.759 21.4432C117.092 21.2538 117.543 21.1591 118.111 21.1591C118.846 21.1591 119.493 21.3428 120.054 21.7102C120.615 22.0777 121.052 22.5985 121.366 23.2727C121.681 23.947 121.838 24.7424 121.838 25.6591C121.838 26.5833 121.681 27.3845 121.366 28.0625C121.052 28.7367 120.616 29.2595 120.06 29.6307C119.503 29.9981 118.861 30.1818 118.134 30.1818C117.573 30.1818 117.124 30.089 116.787 29.9034C116.45 29.714 116.19 29.5 116.009 29.2614C115.827 29.0189 115.687 28.8182 115.588 28.6591H115.474V33.2727H114.134ZM115.452 25.6364C115.452 26.2955 115.548 26.8769 115.741 27.3807C115.935 27.8807 116.217 28.2727 116.588 28.5568C116.959 28.8371 117.414 28.9773 117.952 28.9773C118.512 28.9773 118.98 28.8295 119.355 28.5341C119.734 28.2348 120.018 27.8333 120.207 27.3295C120.401 26.822 120.497 26.2576 120.497 25.6364C120.497 25.0227 120.402 24.4697 120.213 23.9773C120.027 23.4811 119.745 23.089 119.366 22.8011C118.991 22.5095 118.52 22.3636 117.952 22.3636C117.406 22.3636 116.948 22.5019 116.577 22.7784C116.205 23.0511 115.925 23.4337 115.736 23.9261C115.546 24.4148 115.452 24.9848 115.452 25.6364ZM125.043 24.4318H127.543C128.565 24.4318 129.348 24.6913 129.889 25.2102C130.431 25.7292 130.702 26.3864 130.702 27.1818C130.702 27.7045 130.58 28.1799 130.338 28.608C130.096 29.0322 129.74 29.3712 129.27 29.625C128.8 29.875 128.224 30 127.543 30H123.884V21.2727H125.224V28.75H127.543C128.073 28.75 128.509 28.6098 128.849 28.3295C129.19 28.0492 129.361 27.6894 129.361 27.25C129.361 26.7879 129.19 26.411 128.849 26.1193C128.509 25.8277 128.073 25.6818 127.543 25.6818H125.043V24.4318ZM132.088 30V21.2727H133.429V30H132.088Z" fill="#1D1D1D"/>
<path fill-rule="evenodd" clip-rule="evenodd" d="M139.601 29.962C136.924 27.1572 137.673 21.9719 141.332 18.317C145.016 14.6372 150.275 13.9109 153.062 16.6829C153.164 16.7853 153.262 16.8911 153.355 17.0001L154.261 17.9055C157.049 20.6775 156.358 25.9914 152.674 29.6712C150.493 31.85 147.766 33 145.319 33C143.634 33 142.083 32.4553 140.944 31.3174L139.623 29.9859C139.616 29.9782 139.608 29.9702 139.601 29.962ZM141.78 18.7891C143.84 16.7313 146.409 15.6419 148.675 15.6419C150.202 15.6419 151.571 16.1382 152.589 17.155C155.122 19.6727 154.383 24.5267 150.953 27.9523C147.524 31.3779 142.677 32.1042 140.144 29.5865C137.624 27.0566 138.351 22.2147 141.78 18.7891ZM144.228 29.9495C142.968 29.9495 141.841 29.5501 141.005 28.727C139.963 27.686 139.563 26.1487 139.866 24.3935C140.169 22.6747 141.114 20.9558 142.532 19.5396C143.95 18.1233 145.67 17.1791 147.391 16.8765C149.136 16.5618 150.687 16.9734 151.729 18.0144C152.771 19.0554 153.171 20.5927 152.868 22.3478C152.565 24.0667 151.62 25.7855 150.202 27.2018C148.409 28.9933 146.179 29.9495 144.228 29.9495ZM148.518 17.4212C148.191 17.4212 147.864 17.4454 147.512 17.5181C145.925 17.7965 144.325 18.6801 143.004 19.9995C141.684 21.3189 140.799 22.9289 140.52 24.5025C140.254 26.0397 140.593 27.3834 141.478 28.267C143.332 30.119 147.052 29.4412 149.754 26.7418C151.075 25.4224 151.959 23.8125 152.238 22.2389C152.505 20.7016 152.165 19.358 151.281 18.4743C150.59 17.7844 149.633 17.4212 148.518 17.4212Z" fill="#1D1D1D"/>
<path d="M162.861 9.53033C163.337 9.42649 163.665 9.99517 163.337 10.3554L161.352 12.5363C161.243 12.6561 161.199 12.8213 161.233 12.9795L161.862 15.8608C161.966 16.3367 161.397 16.665 161.037 16.3371L158.856 14.352C158.736 14.243 158.571 14.1987 158.413 14.2333L155.532 14.862C155.056 14.9658 154.727 14.3971 155.055 14.0369L157.04 11.856C157.149 11.7362 157.194 11.5711 157.159 11.4128L156.53 8.53153C156.426 8.05561 156.995 7.72728 157.355 8.05517L159.536 10.0403C159.656 10.1493 159.821 10.1936 159.979 10.159L162.861 9.53033Z" fill="#FFCF08"/>
<path d="M166.593 14.9936C167.069 14.8897 167.397 15.4584 167.07 15.8187L166.156 16.8226C166.047 16.9423 166.003 17.1075 166.037 17.2657L166.326 18.592C166.43 19.0679 165.862 19.3962 165.501 19.0683L164.497 18.1546C164.378 18.0456 164.213 18.0013 164.054 18.0358L162.728 18.3252C162.252 18.4291 161.924 17.8604 162.252 17.5002L163.165 16.4963C163.274 16.3765 163.319 16.2113 163.284 16.0531L162.995 14.7268C162.891 14.2509 163.46 13.9226 163.82 14.2505L164.824 15.1642C164.944 15.2733 165.109 15.3175 165.267 15.283L166.593 14.9936Z" fill="#FFCF08"/>
</svg>
