<svg width="107" height="27" viewBox="0 0 107 27" fill="none" xmlns="http://www.w3.org/2000/svg">
<g clip-path="url(#clip0_0_34)">
<path d="M20 5H4C2.61929 5 1.5 6.11929 1.5 7.5V17.5C1.5 18.8807 2.61929 20 4 20H20C21.3807 20 22.5 18.8807 22.5 17.5V7.5C22.5 6.11929 21.3807 5 20 5Z" fill="#22438B"/>
<path d="M1.51316 17.7571L9.05637 12.5315L1.50781 7.30213C1.60868 6.01391 2.68598 5 4.0001 5H4.33085L12.1295 10.4026L19.9281 5H20.0001C21.3728 5 22.4871 6.10638 22.5 7.47608L15.2025 12.5315L22.4986 17.5859C22.4534 18.9268 21.3521 20 20.0001 20H19.8372L12.1295 14.6604L4.42169 20H4.0001C2.70619 20 1.64187 19.017 1.51316 17.7571Z" fill="white"/>
<path d="M2.92533 5.24207L12.1293 11.6182L21.2225 5.31879C21.672 5.57127 22.0355 5.95866 22.2582 6.42608L13.4463 12.5306L22.2358 18.6196C22.0031 19.0834 21.6304 19.4647 21.1731 19.7082L12.1293 13.443L2.97832 19.7824C2.49721 19.5667 2.09669 19.2034 1.83443 18.7501L10.8122 12.5306L1.80957 6.29389C2.06166 5.83704 2.45253 5.46749 2.92533 5.24207Z" fill="#C7152A"/>
<path d="M1.5 10H9.5V5H14.5V10H22.5V15H14.5V20H9.5V15H1.5V10Z" fill="white"/>
<path d="M13.5 5H10.5V11H1.5V14H10.5V20H13.5V14H22.5V11H13.5V5Z" fill="#C7152A"/>
<path d="M20 5.5H4C2.89543 5.5 2 6.39543 2 7.5V17.5C2 18.6046 2.89543 19.5 4 19.5H20C21.1046 19.5 22 18.6046 22 17.5V7.5C22 6.39543 21.1046 5.5 20 5.5Z" stroke="#1D1D1D" stroke-opacity="0.1"/>
</g>
<path d="M29.2939 19.5V8.625H36.6739V9.945H30.8239V13.245H36.3289V14.565H30.8239V18.18H36.6739V19.5H29.2939ZM47.2381 19.5H45.0031L40.0231 10.215V19.5H38.4931V8.625H40.7431L45.7081 17.88V8.625H47.2381V19.5ZM54.3464 8.43C56.5964 8.43 58.3964 9.69 58.8464 11.79H57.3614C57.0014 10.575 56.0114 9.72 54.2714 9.72C52.3514 9.72 50.8514 11.22 50.8514 14.04C50.8514 16.8 52.2764 18.405 54.2714 18.405C55.7114 18.405 57.4814 17.805 57.4814 15.555V15.27H54.6014V13.95H58.9214V19.5H57.7214L57.6464 18.135C56.9414 19.26 55.6664 19.695 54.2114 19.695C51.0914 19.695 49.2914 17.34 49.2914 14.04C49.2914 10.68 51.2864 8.43 54.3464 8.43ZM64.9939 19.5H63.6289L67.9039 8.625H69.2839L64.9939 19.5ZM80.7628 19.5L78.4078 14.91C78.1228 14.925 77.8678 14.925 77.5828 14.925H75.6628V19.5H74.1328V8.625H77.5828C80.2228 8.625 82.1128 9.15 82.1128 11.76C82.1128 13.485 81.2878 14.31 79.9528 14.67L82.4728 19.5H80.7628ZM77.7028 9.915H75.6628V13.635H77.7028C79.3078 13.635 80.5378 13.47 80.5378 11.79C80.5378 10.11 79.3078 9.915 77.7028 9.915ZM84.0752 8.625H85.6052V15.24C85.6052 17.385 86.3702 18.375 88.4102 18.375C90.4952 18.375 91.2602 17.22 91.2602 15.075V8.625H92.7902V14.955C92.7902 18.135 91.5752 19.695 88.4102 19.695C85.3952 19.695 84.0752 18.465 84.0752 15.075V8.625ZM95.2119 19.5V8.625H99.1269C101.152 8.625 102.952 9.15 102.952 11.31C102.952 12.345 102.517 13.275 101.752 13.71C102.787 14.145 103.402 14.955 103.402 16.29C103.402 18.6 101.677 19.5 99.5019 19.5H95.2119ZM96.7419 14.49V18.21H99.5169C101.077 18.21 101.827 17.55 101.827 16.305C101.827 15.03 101.062 14.49 99.4269 14.49H96.7419ZM96.7419 9.915V13.275H99.3669C100.627 13.275 101.407 12.795 101.407 11.52C101.407 10.395 100.582 9.915 99.3669 9.915H96.7419Z" fill="#1D1D1D"/>
<defs>
<clipPath id="clip0_0_34">
<rect width="26" height="26" fill="white" transform="translate(0 0.5)"/>
</clipPath>
</defs>
</svg>
