<svg width="34" height="34" viewBox="0 0 34 34" fill="none" xmlns="http://www.w3.org/2000/svg">
<g clip-path="url(#clip0_0_89)">
<path d="M29.75 8.5C29.75 6.15254 31.6525 4.25 34 4.25C31.6525 4.25 29.75 2.34746 29.75 0C29.75 2.34746 27.8475 4.25 25.5 4.25C27.8475 4.25 29.75 6.15254 29.75 8.5Z" fill="black"/>
<path d="M30.8125 12.75C30.8125 14.5104 29.3854 15.9375 27.625 15.9375C29.3854 15.9375 30.8125 17.3646 30.8125 19.125C30.8125 17.3646 32.2396 15.9375 34 15.9375C32.2396 15.9375 30.8125 14.5104 30.8125 12.75Z" fill="black"/>
<path d="M14.875 12.75C14.875 9.22914 17.7291 6.375 21.25 6.375C17.7291 6.375 14.875 3.52086 14.875 0C14.875 3.52086 12.0209 6.375 8.5 6.375C12.0209 6.375 14.875 9.22914 14.875 12.75Z" fill="black"/>
<path d="M23.375 6.375L0 29.75L4.25 34L27.625 10.625L23.375 6.375ZM19.7472 13.1903L22.7521 10.1854L23.8146 11.2479L20.8097 14.2528L19.7472 13.1903Z" fill="black"/>
</g>
<defs>
<clipPath id="clip0_0_89">
<rect width="34" height="34" fill="white"/>
</clipPath>
</defs>
</svg>
