<svg width="102" height="48" viewBox="0 0 102 48" fill="none" xmlns="http://www.w3.org/2000/svg">
<g clip-path="url(#clip0_0_12)">
<path fill-rule="evenodd" clip-rule="evenodd" d="M19.3333 17.5417C18.9882 17.5417 18.7083 17.8215 18.7083 18.1667C18.7083 18.5119 18.9882 18.7917 19.3333 18.7917H32.6667C33.0118 18.7917 33.2917 18.5119 33.2917 18.1667C33.2917 17.8215 33.0118 17.5417 32.6667 17.5417H19.3333ZM18.7083 24C18.7083 23.6549 18.9882 23.375 19.3333 23.375H32.6667C33.0118 23.375 33.2917 23.6549 33.2917 24C33.2917 24.3452 33.0118 24.625 32.6667 24.625H19.3333C18.9882 24.625 18.7083 24.3452 18.7083 24ZM18.7083 29.8334C18.7083 29.4882 18.9882 29.2084 19.3333 29.2084H32.6667C33.0118 29.2084 33.2917 29.4882 33.2917 29.8334C33.2917 30.1785 33.0118 30.4584 32.6667 30.4584H19.3333C18.9882 30.4584 18.7083 30.1785 18.7083 29.8334Z" fill="#1D1D1D"/>
</g>
<path d="M51.936 30H50.208L47.008 19.888V30H45.376V18.4H48.112L51.072 28.064L54.032 18.4H56.768V30H55.136V19.888L51.936 30ZM66.8926 26.176H60.2686C60.3166 28.032 61.6606 28.928 62.9246 28.928C64.2046 28.928 64.9086 28.352 65.2766 27.504H66.7806C66.3966 28.976 65.0206 30.208 62.9246 30.208C60.2046 30.208 58.7006 28.256 58.7006 25.712C58.7006 22.976 60.5246 21.248 62.8766 21.248C65.5166 21.248 67.0686 23.44 66.8926 26.176ZM62.8766 22.496C61.5966 22.496 60.4126 23.2 60.2846 24.928H65.3566C65.3086 23.712 64.4286 22.496 62.8766 22.496ZM70.0455 21.392V22.688C70.5415 21.872 71.3735 21.248 72.8295 21.248C74.9095 21.248 75.6615 22.592 75.6615 24.56V30H74.2055V24.992C74.2055 23.664 73.9815 22.512 72.3175 22.512C70.9095 22.512 70.0455 23.472 70.0455 25.328V30H68.5895V21.392H70.0455ZM83.1675 30V28.768C82.6715 29.584 81.8875 30.208 80.4635 30.208C78.4795 30.208 77.7115 28.864 77.7115 26.896V21.392H79.1675V26.464C79.1675 27.792 79.3755 28.944 80.9755 28.944C82.3675 28.944 83.1675 27.984 83.1675 26.128V21.392H84.6235V30H83.1675Z" fill="#1D1D1D"/>
<defs>
<clipPath id="clip0_0_12">
<rect width="20" height="24" fill="white" transform="translate(16 12)"/>
</clipPath>
</defs>
</svg>
