<svg width="124" height="48" viewBox="0 0 124 48" fill="none" xmlns="http://www.w3.org/2000/svg">
<g clip-path="url(#clip0_0_12)">
<path fill-rule="evenodd" clip-rule="evenodd" d="M19.3333 17.5417C18.9882 17.5417 18.7083 17.8215 18.7083 18.1667C18.7083 18.5119 18.9882 18.7917 19.3333 18.7917H32.6667C33.0118 18.7917 33.2917 18.5119 33.2917 18.1667C33.2917 17.8215 33.0118 17.5417 32.6667 17.5417H19.3333ZM18.7083 24C18.7083 23.6549 18.9882 23.375 19.3333 23.375H32.6667C33.0118 23.375 33.2917 23.6549 33.2917 24C33.2917 24.3452 33.0118 24.625 32.6667 24.625H19.3333C18.9882 24.625 18.7083 24.3452 18.7083 24ZM18.7083 29.8334C18.7083 29.4882 18.9882 29.2084 19.3333 29.2084H32.6667C33.0118 29.2084 33.2917 29.4882 33.2917 29.8334C33.2917 30.1785 33.0118 30.4584 32.6667 30.4584H19.3333C18.9882 30.4584 18.7083 30.1785 18.7083 29.8334Z" fill="#1D1D1D"/>
</g>
<path d="M52.4318 18.3636V19.6136H46.8182V30H45.4091V18.3636H52.4318ZM53.6577 30V28.75H53.9759C54.2372 28.75 54.455 28.6989 54.6293 28.5966C54.8035 28.4905 54.9437 28.3068 55.0497 28.0455C55.1596 27.7803 55.2429 27.4129 55.2997 26.9432C55.3603 26.4697 55.4039 25.8674 55.4304 25.1364L55.5895 21.2727H61.4077V30H60.0668V22.5227H56.8622L56.7259 25.6364C56.6955 26.3523 56.6312 26.983 56.5327 27.5284C56.438 28.0701 56.2921 28.5246 56.0952 28.892C55.902 29.2595 55.6444 29.536 55.3224 29.7216C55.0005 29.9072 54.5971 30 54.1122 30H53.6577ZM66.4361 30.2045C65.883 30.2045 65.3812 30.1004 64.9304 29.892C64.4796 29.6799 64.1217 29.375 63.8565 28.9773C63.5914 28.5758 63.4588 28.0909 63.4588 27.5227C63.4588 27.0227 63.5573 26.6174 63.7543 26.3068C63.9512 25.9924 64.2145 25.7462 64.544 25.5682C64.8736 25.3902 65.2372 25.2576 65.6349 25.1705C66.0365 25.0795 66.4399 25.0076 66.8452 24.9545C67.3755 24.8864 67.8054 24.8352 68.1349 24.8011C68.4683 24.7633 68.7107 24.7008 68.8622 24.6136C69.0175 24.5265 69.0952 24.375 69.0952 24.1591V24.1136C69.0952 23.553 68.9418 23.1174 68.6349 22.8068C68.3319 22.4962 67.8717 22.3409 67.2543 22.3409C66.6141 22.3409 66.1122 22.4811 65.7486 22.7614C65.3849 23.0417 65.1293 23.3409 64.9815 23.6591L63.7088 23.2045C63.9361 22.6742 64.2391 22.2614 64.6179 21.9659C65.0005 21.6667 65.4171 21.4583 65.8679 21.3409C66.3224 21.2197 66.7694 21.1591 67.2088 21.1591C67.4891 21.1591 67.8111 21.1932 68.1747 21.2614C68.5421 21.3258 68.8963 21.4602 69.2372 21.6648C69.5819 21.8693 69.8679 22.178 70.0952 22.5909C70.3224 23.0038 70.4361 23.5568 70.4361 24.25V30H69.0952V28.8182H69.027C68.9361 29.0076 68.7846 29.2102 68.5724 29.4261C68.3603 29.642 68.0781 29.8258 67.7259 29.9773C67.3736 30.1288 66.9437 30.2045 66.4361 30.2045ZM66.6406 29C67.1709 29 67.6179 28.8958 67.9815 28.6875C68.349 28.4792 68.6255 28.2102 68.8111 27.8807C69.0005 27.5511 69.0952 27.2045 69.0952 26.8409V25.6136C69.0384 25.6818 68.9134 25.7443 68.7202 25.8011C68.5308 25.8542 68.3111 25.9015 68.0611 25.9432C67.8149 25.9811 67.5743 26.0152 67.3395 26.0455C67.1084 26.072 66.9209 26.0947 66.777 26.1136C66.4285 26.1591 66.1027 26.233 65.7997 26.3352C65.5005 26.4337 65.258 26.5833 65.0724 26.7841C64.8906 26.9811 64.7997 27.25 64.7997 27.5909C64.7997 28.0568 64.9721 28.4091 65.3168 28.6477C65.6652 28.8826 66.1065 29 66.6406 29ZM72.8835 30V21.2727H76.4517C77.3911 21.2727 78.1373 21.4848 78.6903 21.9091C79.2434 22.3333 79.5199 22.8939 79.5199 23.5909C79.5199 24.1212 79.3627 24.5322 79.0483 24.8239C78.7339 25.1117 78.3305 25.3068 77.8381 25.4091C78.16 25.4545 78.4725 25.5682 78.7756 25.75C79.0824 25.9318 79.3362 26.1818 79.5369 26.5C79.7377 26.8144 79.8381 27.2008 79.8381 27.6591C79.8381 28.1061 79.7244 28.5057 79.4972 28.858C79.2699 29.2102 78.9441 29.4886 78.5199 29.6932C78.0956 29.8977 77.5881 30 76.9972 30H72.8835ZM74.1562 28.7727H76.9972C77.4593 28.7727 77.821 28.6629 78.0824 28.4432C78.3438 28.2235 78.4744 27.9242 78.4744 27.5455C78.4744 27.0947 78.3438 26.7405 78.0824 26.483C77.821 26.2216 77.4593 26.0909 76.9972 26.0909H74.1562V28.7727ZM74.1562 24.9318H76.4517C76.8116 24.9318 77.1203 24.8826 77.3778 24.7841C77.6354 24.6818 77.8324 24.5379 77.9688 24.3523C78.1089 24.1629 78.179 23.9394 78.179 23.6818C78.179 23.3144 78.0256 23.0265 77.7188 22.8182C77.4119 22.6061 76.9896 22.5 76.4517 22.5H74.1562V24.9318ZM87.7088 25.0227V26.2727H82.8906V25.0227H87.7088ZM83.2088 21.2727V30H81.8679V21.2727H83.2088ZM88.7315 21.2727V30H87.3906V21.2727H88.7315ZM93.7486 30.2045C93.1955 30.2045 92.6937 30.1004 92.2429 29.892C91.7921 29.6799 91.4342 29.375 91.169 28.9773C90.9039 28.5758 90.7713 28.0909 90.7713 27.5227C90.7713 27.0227 90.8698 26.6174 91.0668 26.3068C91.2637 25.9924 91.527 25.7462 91.8565 25.5682C92.1861 25.3902 92.5497 25.2576 92.9474 25.1705C93.349 25.0795 93.7524 25.0076 94.1577 24.9545C94.688 24.8864 95.1179 24.8352 95.4474 24.8011C95.7808 24.7633 96.0232 24.7008 96.1747 24.6136C96.33 24.5265 96.4077 24.375 96.4077 24.1591V24.1136C96.4077 23.553 96.2543 23.1174 95.9474 22.8068C95.6444 22.4962 95.1842 22.3409 94.5668 22.3409C93.9266 22.3409 93.4247 22.4811 93.0611 22.7614C92.6974 23.0417 92.4418 23.3409 92.294 23.6591L91.0213 23.2045C91.2486 22.6742 91.5516 22.2614 91.9304 21.9659C92.313 21.6667 92.7296 21.4583 93.1804 21.3409C93.6349 21.2197 94.0819 21.1591 94.5213 21.1591C94.8016 21.1591 95.1236 21.1932 95.4872 21.2614C95.8546 21.3258 96.2088 21.4602 96.5497 21.6648C96.8944 21.8693 97.1804 22.178 97.4077 22.5909C97.6349 23.0038 97.7486 23.5568 97.7486 24.25V30H96.4077V28.8182H96.3395C96.2486 29.0076 96.0971 29.2102 95.8849 29.4261C95.6728 29.642 95.3906 29.8258 95.0384 29.9773C94.6861 30.1288 94.2562 30.2045 93.7486 30.2045ZM93.9531 29C94.4834 29 94.9304 28.8958 95.294 28.6875C95.6615 28.4792 95.938 28.2102 96.1236 27.8807C96.313 27.5511 96.4077 27.2045 96.4077 26.8409V25.6136C96.3509 25.6818 96.2259 25.7443 96.0327 25.8011C95.8433 25.8542 95.6236 25.9015 95.3736 25.9432C95.1274 25.9811 94.8868 26.0152 94.652 26.0455C94.4209 26.072 94.2334 26.0947 94.0895 26.1136C93.741 26.1591 93.4152 26.233 93.1122 26.3352C92.813 26.4337 92.5705 26.5833 92.3849 26.7841C92.2031 26.9811 92.1122 27.25 92.1122 27.5909C92.1122 28.0568 92.2846 28.4091 92.6293 28.6477C92.9777 28.8826 93.419 29 93.9531 29ZM105.446 30V22.5H103.128C102.605 22.5 102.194 22.6212 101.895 22.8636C101.596 23.1061 101.446 23.4394 101.446 23.8636C101.446 24.2803 101.58 24.608 101.849 24.8466C102.122 25.0852 102.495 25.2045 102.969 25.2045H105.787V26.4545H102.969C102.378 26.4545 101.868 26.3504 101.44 26.142C101.012 25.9337 100.683 25.6364 100.452 25.25C100.221 24.8598 100.105 24.3977 100.105 23.8636C100.105 23.3258 100.226 22.8636 100.469 22.4773C100.711 22.0909 101.058 21.7936 101.509 21.5852C101.963 21.3769 102.503 21.2727 103.128 21.2727H106.719V30H105.446ZM99.6278 30L102.105 25.6591H103.56L101.082 30H99.6278Z" fill="#1D1D1D"/>
<defs>
<clipPath id="clip0_0_12">
<rect width="20" height="24" fill="white" transform="translate(16 12)"/>
</clipPath>
</defs>
</svg>
