<svg width="108" height="49" viewBox="0 0 108 49" fill="none" xmlns="http://www.w3.org/2000/svg">
<g clip-path="url(#clip0_0_55)">
<path fill-rule="evenodd" clip-rule="evenodd" d="M26.96 16.25C24.7049 16.25 22.8767 18.0782 22.8767 20.3333C22.8767 22.5885 24.7049 24.4167 26.96 24.4167C29.2152 24.4167 31.0433 22.5885 31.0433 20.3333C31.0433 18.0782 29.2152 16.25 26.96 16.25ZM24.46 26.25C22.2049 26.25 20.3767 28.0782 20.3767 30.3333C20.3767 31.668 21.4587 32.75 22.7934 32.75H31.1267C32.4614 32.75 33.5433 31.668 33.5433 30.3333C33.5433 28.0782 31.7152 26.25 29.46 26.25H24.46Z" fill="#1D1D1D"/>
</g>
<path d="M46.4298 18.9H50.0618C52.8938 18.9 54.8778 19.54 54.8778 22.404C54.8778 25.284 52.8938 25.908 50.0618 25.908H48.0618V30.5H46.4298V18.9ZM50.1898 20.276H48.0618V24.484H50.1898C51.9018 24.484 53.2138 24.308 53.2138 22.404C53.2138 20.516 51.9018 20.276 50.1898 20.276ZM60.5094 21.86V23.412C60.2054 23.364 59.9334 23.348 59.6934 23.348C58.3494 23.348 57.6774 24.084 57.6774 25.988V30.5H56.2214V21.892H57.6454V23.396C58.0774 22.42 58.9414 21.892 60.0774 21.844C60.2214 21.844 60.3334 21.844 60.5094 21.86ZM62.7446 26.228C62.7446 28.532 63.9926 29.428 65.3206 29.428C66.6486 29.428 67.8966 28.436 67.8966 26.228C67.8966 23.924 66.6486 23.028 65.3206 23.028C63.9926 23.028 62.7446 23.876 62.7446 26.228ZM65.3206 21.748C67.3206 21.748 69.4486 23.108 69.4486 26.228C69.4486 29.348 67.3206 30.708 65.3206 30.708C63.3206 30.708 61.1926 29.348 61.1926 26.228C61.1926 23.108 63.3206 21.748 65.3206 21.748ZM71.6363 21.892V21.268C71.6363 19.476 71.9883 18.9 73.9563 18.9H74.7083V20.116H73.9883C73.2203 20.116 73.0923 20.292 73.0923 21.188V21.892H74.7083V23.06H73.0923V30.5H71.6363V23.06H70.4363V21.892H71.6363ZM76.2839 21.892H77.7399V30.5H76.2839V21.892ZM76.2839 18.9H77.7399V20.66H76.2839V18.9ZM81.5055 18.9V30.5H80.0495V18.9H81.5055ZM91.4151 26.676H84.7911C84.8391 28.532 86.1831 29.428 87.4471 29.428C88.7271 29.428 89.4311 28.852 89.7991 28.004H91.3031C90.9191 29.476 89.5431 30.708 87.4471 30.708C84.7271 30.708 83.2231 28.756 83.2231 26.212C83.2231 23.476 85.0471 21.748 87.3991 21.748C90.0391 21.748 91.5911 23.94 91.4151 26.676ZM87.3991 22.996C86.1191 22.996 84.9351 23.7 84.8071 25.428H89.8791C89.8311 24.212 88.9511 22.996 87.3991 22.996Z" fill="#1D1D1D"/>
<defs>
<clipPath id="clip0_0_55">
<rect width="20" height="20" fill="white" transform="translate(16.96 14.5)"/>
</clipPath>
</defs>
</svg>
