<svg width="111" height="49" viewBox="0 0 111 49" fill="none" xmlns="http://www.w3.org/2000/svg">
<g clip-path="url(#clip0_0_55)">
<path fill-rule="evenodd" clip-rule="evenodd" d="M26.96 16.25C24.7049 16.25 22.8767 18.0782 22.8767 20.3333C22.8767 22.5885 24.7049 24.4167 26.96 24.4167C29.2152 24.4167 31.0433 22.5885 31.0433 20.3333C31.0433 18.0782 29.2152 16.25 26.96 16.25ZM24.46 26.25C22.2049 26.25 20.3767 28.0782 20.3767 30.3333C20.3767 31.668 21.4587 32.75 22.7934 32.75H31.1267C32.4614 32.75 33.5433 31.668 33.5433 30.3333C33.5433 28.0782 31.7152 26.25 29.46 26.25H24.46Z" fill="#1D1D1D"/>
</g>
<path d="M47.0097 30.5V18.8636H51.0779C51.8885 18.8636 52.5571 19.0038 53.0836 19.2841C53.6101 19.5606 54.0022 19.9337 54.2597 20.4034C54.5173 20.8693 54.6461 21.3864 54.6461 21.9545C54.6461 22.4545 54.5571 22.8674 54.3791 23.1932C54.2048 23.5189 53.9738 23.7765 53.6859 23.9659C53.4018 24.1553 53.0931 24.2955 52.7597 24.3864V24.5C53.1158 24.5227 53.4738 24.6477 53.8336 24.875C54.1935 25.1023 54.4946 25.428 54.737 25.8523C54.9794 26.2765 55.1006 26.7955 55.1006 27.4091C55.1006 27.9924 54.9681 28.517 54.7029 28.983C54.4378 29.4489 54.0192 29.8182 53.4472 30.0909C52.8753 30.3636 52.131 30.5 51.2143 30.5H47.0097ZM48.4188 29.25H51.2143C52.1347 29.25 52.7881 29.072 53.1745 28.7159C53.5647 28.3561 53.7597 27.9205 53.7597 27.4091C53.7597 27.0152 53.6594 26.6515 53.4586 26.3182C53.2578 25.9811 52.9719 25.7121 52.6006 25.5114C52.2294 25.3068 51.79 25.2045 51.2825 25.2045H48.4188V29.25ZM48.4188 23.9773H51.0325C51.4567 23.9773 51.8393 23.8939 52.1802 23.7273C52.5249 23.5606 52.7976 23.3258 52.9984 23.0227C53.2029 22.7197 53.3052 22.3636 53.3052 21.9545C53.3052 21.4432 53.1272 21.0095 52.7711 20.6534C52.415 20.2936 51.8506 20.1136 51.0779 20.1136H48.4188V23.9773ZM58.3933 24.9318H60.8933C61.916 24.9318 62.6982 25.1913 63.2399 25.7102C63.7815 26.2292 64.0524 26.8864 64.0524 27.6818C64.0524 28.2045 63.9311 28.6799 63.6887 29.108C63.4463 29.5322 63.0902 29.8712 62.6205 30.125C62.1508 30.375 61.5751 30.5 60.8933 30.5H57.2342V21.7727H58.5751V29.25H60.8933C61.4236 29.25 61.8592 29.1098 62.2001 28.8295C62.541 28.5492 62.7114 28.1894 62.7114 27.75C62.7114 27.2879 62.541 26.911 62.2001 26.6193C61.8592 26.3277 61.4236 26.1818 60.8933 26.1818H58.3933V24.9318ZM65.4387 30.5V21.7727H66.7796V30.5H65.4387ZM70.5751 28.5227L74.7796 21.7727H76.3251V30.5H74.9842V23.75L70.8024 30.5H69.2342V21.7727H70.5751V28.5227ZM73.8933 18.8636H75.1433C75.1433 19.4773 74.9311 19.9792 74.5069 20.3693C74.0827 20.7595 73.5069 20.9545 72.7796 20.9545C72.0637 20.9545 71.4936 20.7595 71.0694 20.3693C70.6489 19.9792 70.4387 19.4773 70.4387 18.8636H71.6887C71.6887 19.1591 71.7702 19.4186 71.933 19.642C72.0997 19.8655 72.3819 19.9773 72.7796 19.9773C73.1774 19.9773 73.4614 19.8655 73.6319 19.642C73.8061 19.4186 73.8933 19.1591 73.8933 18.8636ZM77.5935 23.0227V21.7727H84.6845V23.0227H81.8208V30.5H80.4799V23.0227H77.5935ZM87.9813 28.5227L92.1859 21.7727H93.7313V30.5H92.3904V23.75L88.2086 30.5H86.6404V21.7727H87.9813V28.5227Z" fill="#1D1D1D"/>
<defs>
<clipPath id="clip0_0_55">
<rect width="20" height="20" fill="white" transform="translate(16.96 14.5)"/>
</clipPath>
</defs>
</svg>
