<svg width="151" height="39" viewBox="0 0 151 39" fill="none" xmlns="http://www.w3.org/2000/svg">
<path d="M8.82183 12.8636V14.1136H3.2082V24.5H1.79911V12.8636H8.82183ZM13.2139 24.6818C12.373 24.6818 11.6476 24.4962 11.0377 24.125C10.4317 23.75 9.96388 23.2273 9.63433 22.5568C9.30858 21.8826 9.1457 21.0985 9.1457 20.2045C9.1457 19.3106 9.30858 18.5227 9.63433 17.8409C9.96388 17.1553 10.4222 16.6212 11.0093 16.2386C11.6002 15.8523 12.2896 15.6591 13.0775 15.6591C13.5321 15.6591 13.9809 15.7348 14.4241 15.8864C14.8673 16.0379 15.2707 16.2841 15.6343 16.625C15.998 16.9621 16.2877 17.4091 16.5037 17.9659C16.7196 18.5227 16.8275 19.2083 16.8275 20.0227V20.5909H10.1002V19.4318H15.4639C15.4639 18.9394 15.3654 18.5 15.1684 18.1136C14.9752 17.7273 14.6987 17.4223 14.3389 17.1989C13.9828 16.9754 13.5624 16.8636 13.0775 16.8636C12.5434 16.8636 12.0813 16.9962 11.6912 17.2614C11.3048 17.5227 11.0074 17.8636 10.7991 18.2841C10.5908 18.7045 10.4866 19.1553 10.4866 19.6364V20.4091C10.4866 21.0682 10.6002 21.6269 10.8275 22.0852C11.0586 22.5398 11.3787 22.8864 11.7877 23.125C12.1968 23.3598 12.6722 23.4773 13.2139 23.4773C13.5662 23.4773 13.8843 23.428 14.1684 23.3295C14.4563 23.2273 14.7044 23.0758 14.9127 22.875C15.1211 22.6705 15.2821 22.4167 15.3957 22.1136L16.6912 22.4773C16.5548 22.9167 16.3256 23.303 16.0037 23.6364C15.6817 23.9659 15.284 24.2235 14.8105 24.4091C14.337 24.5909 13.8048 24.6818 13.2139 24.6818ZM24.7082 19.5227V20.7727H19.89V19.5227H24.7082ZM20.2082 15.7727V24.5H18.8673V15.7727H20.2082ZM25.7309 15.7727V24.5H24.39V15.7727H25.7309ZM31.8389 24.6818C30.998 24.6818 30.2726 24.4962 29.6627 24.125C29.0567 23.75 28.5889 23.2273 28.2593 22.5568C27.9336 21.8826 27.7707 21.0985 27.7707 20.2045C27.7707 19.3106 27.9336 18.5227 28.2593 17.8409C28.5889 17.1553 29.0472 16.6212 29.6343 16.2386C30.2252 15.8523 30.9146 15.6591 31.7025 15.6591C32.1571 15.6591 32.6059 15.7348 33.0491 15.8864C33.4923 16.0379 33.8957 16.2841 34.2593 16.625C34.623 16.9621 34.9127 17.4091 35.1287 17.9659C35.3446 18.5227 35.4525 19.2083 35.4525 20.0227V20.5909H28.7252V19.4318H34.0889C34.0889 18.9394 33.9904 18.5 33.7934 18.1136C33.6002 17.7273 33.3237 17.4223 32.9639 17.1989C32.6078 16.9754 32.1874 16.8636 31.7025 16.8636C31.1684 16.8636 30.7063 16.9962 30.3162 17.2614C29.9298 17.5227 29.6324 17.8636 29.4241 18.2841C29.2158 18.7045 29.1116 19.1553 29.1116 19.6364V20.4091C29.1116 21.0682 29.2252 21.6269 29.4525 22.0852C29.6836 22.5398 30.0037 22.8864 30.4127 23.125C30.8218 23.3598 31.2972 23.4773 31.8389 23.4773C32.1912 23.4773 32.5093 23.428 32.7934 23.3295C33.0813 23.2273 33.3294 23.0758 33.5377 22.875C33.7461 22.6705 33.9071 22.4167 34.0207 22.1136L35.3162 22.4773C35.1798 22.9167 34.9506 23.303 34.6287 23.6364C34.3067 23.9659 33.909 24.2235 33.4355 24.4091C32.962 24.5909 32.4298 24.6818 31.8389 24.6818ZM37.4923 27.7727V15.7727H38.7877V17.1591H38.9468C39.0453 17.0076 39.1817 16.8144 39.3559 16.5795C39.534 16.3409 39.7877 16.1288 40.1173 15.9432C40.4506 15.7538 40.9014 15.6591 41.4696 15.6591C42.2044 15.6591 42.8521 15.8428 43.4127 16.2102C43.9733 16.5777 44.4108 17.0985 44.7252 17.7727C45.0396 18.447 45.1968 19.2424 45.1968 20.1591C45.1968 21.0833 45.0396 21.8845 44.7252 22.5625C44.4108 23.2367 43.9752 23.7595 43.4184 24.1307C42.8616 24.4981 42.2196 24.6818 41.4923 24.6818C40.9317 24.6818 40.4828 24.589 40.1457 24.4034C39.8086 24.214 39.5491 24 39.3673 23.7614C39.1855 23.5189 39.0453 23.3182 38.9468 23.1591H38.8332V27.7727H37.4923ZM38.8105 20.1364C38.8105 20.7955 38.9071 21.3769 39.1002 21.8807C39.2934 22.3807 39.5756 22.7727 39.9468 23.0568C40.318 23.3371 40.7726 23.4773 41.3105 23.4773C41.8711 23.4773 42.3389 23.3295 42.7139 23.0341C43.0927 22.7348 43.3768 22.3333 43.5662 21.8295C43.7593 21.322 43.8559 20.7576 43.8559 20.1364C43.8559 19.5227 43.7612 18.9697 43.5718 18.4773C43.3862 17.9811 43.104 17.589 42.7252 17.3011C42.3502 17.0095 41.8787 16.8636 41.3105 16.8636C40.765 16.8636 40.3067 17.0019 39.9355 17.2784C39.5643 17.5511 39.284 17.9337 39.0946 18.4261C38.9052 18.9148 38.8105 19.4848 38.8105 20.1364ZM49.8105 24.7045C49.2574 24.7045 48.7555 24.6004 48.3048 24.392C47.854 24.1799 47.4961 23.875 47.2309 23.4773C46.9658 23.0758 46.8332 22.5909 46.8332 22.0227C46.8332 21.5227 46.9317 21.1174 47.1287 20.8068C47.3256 20.4924 47.5889 20.2462 47.9184 20.0682C48.248 19.8902 48.6116 19.7576 49.0093 19.6705C49.4108 19.5795 49.8143 19.5076 50.2196 19.4545C50.7499 19.3864 51.1798 19.3352 51.5093 19.3011C51.8427 19.2633 52.0851 19.2008 52.2366 19.1136C52.3919 19.0265 52.4696 18.875 52.4696 18.6591V18.6136C52.4696 18.053 52.3162 17.6174 52.0093 17.3068C51.7063 16.9962 51.2461 16.8409 50.6287 16.8409C49.9885 16.8409 49.4866 16.9811 49.123 17.2614C48.7593 17.5417 48.5037 17.8409 48.3559 18.1591L47.0832 17.7045C47.3105 17.1742 47.6135 16.7614 47.9923 16.4659C48.3749 16.1667 48.7915 15.9583 49.2423 15.8409C49.6968 15.7197 50.1438 15.6591 50.5832 15.6591C50.8635 15.6591 51.1855 15.6932 51.5491 15.7614C51.9165 15.8258 52.2707 15.9602 52.6116 16.1648C52.9563 16.3693 53.2423 16.678 53.4696 17.0909C53.6968 17.5038 53.8105 18.0568 53.8105 18.75V24.5H52.4696V23.3182H52.4014C52.3105 23.5076 52.159 23.7102 51.9468 23.9261C51.7347 24.142 51.4525 24.3258 51.1002 24.4773C50.748 24.6288 50.318 24.7045 49.8105 24.7045ZM50.015 23.5C50.5453 23.5 50.9923 23.3958 51.3559 23.1875C51.7233 22.9792 51.9999 22.7102 52.1855 22.3807C52.3749 22.0511 52.4696 21.7045 52.4696 21.3409V20.1136C52.4127 20.1818 52.2877 20.2443 52.0946 20.3011C51.9052 20.3542 51.6855 20.4015 51.4355 20.4432C51.1893 20.4811 50.9487 20.5152 50.7139 20.5455C50.4828 20.572 50.2953 20.5947 50.1514 20.6136C49.8029 20.6591 49.4771 20.733 49.1741 20.8352C48.8749 20.9337 48.6324 21.0833 48.4468 21.2841C48.265 21.4811 48.1741 21.75 48.1741 22.0909C48.1741 22.5568 48.3465 22.9091 48.6912 23.1477C49.0396 23.3826 49.4809 23.5 50.015 23.5ZM63.1215 15.7727V23.25H64.3488V27.3182H63.0079V24.5H56.2579V15.7727H57.5988V23.25H61.7806V15.7727H63.1215ZM67.7551 22.5227L71.9596 15.7727H73.5051V24.5H72.1642V17.75L67.9823 24.5H66.4142V15.7727H67.7551V22.5227ZM81.211 24.5V17H78.8929C78.3701 17 77.9591 17.1212 77.6599 17.3636C77.3607 17.6061 77.211 17.9394 77.211 18.3636C77.211 18.7803 77.3455 19.108 77.6144 19.3466C77.8872 19.5852 78.2603 19.7045 78.7338 19.7045H81.5519V20.9545H78.7338C78.1429 20.9545 77.6334 20.8504 77.2054 20.642C76.7773 20.4337 76.4478 20.1364 76.2167 19.75C75.9857 19.3598 75.8701 18.8977 75.8701 18.3636C75.8701 17.8258 75.9913 17.3636 76.2338 16.9773C76.4762 16.5909 76.8228 16.2936 77.2735 16.0852C77.7281 15.8769 78.2679 15.7727 78.8929 15.7727H82.4838V24.5H81.211ZM75.3929 24.5L77.8701 20.1591H79.3247L76.8474 24.5H75.3929ZM88.9454 17.0227V15.7727H96.0363V17.0227H93.1727V24.5H91.8318V17.0227H88.9454ZM98.8559 27.7727C98.6287 27.7727 98.426 27.7538 98.248 27.7159C98.0699 27.6818 97.9468 27.6477 97.8787 27.6136L98.2196 26.4318C98.5453 26.5152 98.8332 26.5455 99.0832 26.5227C99.3332 26.5 99.5548 26.3883 99.748 26.1875C99.9449 25.9905 100.125 25.6705 100.288 25.2273L100.538 24.5455L97.3105 15.7727H98.765L101.174 22.7273H101.265L103.674 15.7727H105.129L101.424 25.7727C101.257 26.2235 101.051 26.5966 100.805 26.892C100.559 27.1913 100.273 27.4129 99.9468 27.5568C99.6249 27.7008 99.2612 27.7727 98.8559 27.7727ZM106.899 27.7727V15.7727H108.194V17.1591H108.353C108.452 17.0076 108.588 16.8144 108.762 16.5795C108.94 16.3409 109.194 16.1288 109.524 15.9432C109.857 15.7538 110.308 15.6591 110.876 15.6591C111.611 15.6591 112.258 15.8428 112.819 16.2102C113.38 16.5777 113.817 17.0985 114.131 17.7727C114.446 18.447 114.603 19.2424 114.603 20.1591C114.603 21.0833 114.446 21.8845 114.131 22.5625C113.817 23.2367 113.381 23.7595 112.825 24.1307C112.268 24.4981 111.626 24.6818 110.899 24.6818C110.338 24.6818 109.889 24.589 109.552 24.4034C109.215 24.214 108.955 24 108.774 23.7614C108.592 23.5189 108.452 23.3182 108.353 23.1591H108.239V27.7727H106.899ZM108.217 20.1364C108.217 20.7955 108.313 21.3769 108.506 21.8807C108.7 22.3807 108.982 22.7727 109.353 23.0568C109.724 23.3371 110.179 23.4773 110.717 23.4773C111.277 23.4773 111.745 23.3295 112.12 23.0341C112.499 22.7348 112.783 22.3333 112.972 21.8295C113.166 21.322 113.262 20.7576 113.262 20.1364C113.262 19.5227 113.167 18.9697 112.978 18.4773C112.792 17.9811 112.51 17.589 112.131 17.3011C111.756 17.0095 111.285 16.8636 110.717 16.8636C110.171 16.8636 109.713 17.0019 109.342 17.2784C108.971 17.5511 108.69 17.9337 108.501 18.4261C108.311 18.9148 108.217 19.4848 108.217 20.1364ZM119.217 24.7045C118.664 24.7045 118.162 24.6004 117.711 24.392C117.26 24.1799 116.902 23.875 116.637 23.4773C116.372 23.0758 116.239 22.5909 116.239 22.0227C116.239 21.5227 116.338 21.1174 116.535 20.8068C116.732 20.4924 116.995 20.2462 117.325 20.0682C117.654 19.8902 118.018 19.7576 118.416 19.6705C118.817 19.5795 119.221 19.5076 119.626 19.4545C120.156 19.3864 120.586 19.3352 120.916 19.3011C121.249 19.2633 121.491 19.2008 121.643 19.1136C121.798 19.0265 121.876 18.875 121.876 18.6591V18.6136C121.876 18.053 121.722 17.6174 121.416 17.3068C121.113 16.9962 120.652 16.8409 120.035 16.8409C119.395 16.8409 118.893 16.9811 118.529 17.2614C118.166 17.5417 117.91 17.8409 117.762 18.1591L116.489 17.7045C116.717 17.1742 117.02 16.7614 117.399 16.4659C117.781 16.1667 118.198 15.9583 118.649 15.8409C119.103 15.7197 119.55 15.6591 119.989 15.6591C120.27 15.6591 120.592 15.6932 120.955 15.7614C121.323 15.8258 121.677 15.9602 122.018 16.1648C122.363 16.3693 122.649 16.678 122.876 17.0909C123.103 17.5038 123.217 18.0568 123.217 18.75V24.5H121.876V23.3182H121.808C121.717 23.5076 121.565 23.7102 121.353 23.9261C121.141 24.142 120.859 24.3258 120.506 24.4773C120.154 24.6288 119.724 24.7045 119.217 24.7045ZM119.421 23.5C119.952 23.5 120.399 23.3958 120.762 23.1875C121.13 22.9792 121.406 22.7102 121.592 22.3807C121.781 22.0511 121.876 21.7045 121.876 21.3409V20.1136C121.819 20.1818 121.694 20.2443 121.501 20.3011C121.311 20.3542 121.092 20.4015 120.842 20.4432C120.596 20.4811 120.355 20.5152 120.12 20.5455C119.889 20.572 119.702 20.5947 119.558 20.6136C119.209 20.6591 118.883 20.733 118.58 20.8352C118.281 20.9337 118.039 21.0833 117.853 21.2841C117.671 21.4811 117.58 21.75 117.58 22.0909C117.58 22.5568 117.753 22.9091 118.097 23.1477C118.446 23.3826 118.887 23.5 119.421 23.5Z" fill="#1D1D1D"/>
<g clip-path="url(#clip0_0_24)">
<path fill-rule="evenodd" clip-rule="evenodd" d="M139.141 11.25C135.828 11.25 133.141 13.9363 133.141 17.25C133.141 20.5637 135.828 23.25 139.141 23.25C142.455 23.25 145.141 20.5637 145.141 17.25C145.141 15.6587 144.509 14.1326 143.384 13.0074C142.259 11.8821 140.733 11.25 139.141 11.25ZM131.641 17.25C131.641 13.1079 134.999 9.75 139.141 9.75C141.131 9.75 143.038 10.5402 144.445 11.9467C145.851 13.3532 146.641 15.2609 146.641 17.25C146.641 21.3921 143.284 24.75 139.141 24.75C134.999 24.75 131.641 21.3921 131.641 17.25ZM148.363 24.9304L146.235 23.212C145.912 22.892 145.396 22.892 145.074 23.212C144.907 23.3802 144.813 23.6087 144.813 23.847C144.813 24.0854 144.907 24.3139 145.074 24.4821L146.841 26.5069C147.271 26.9422 147.97 26.9422 148.4 26.5069C148.831 26.0715 148.831 25.3657 148.4 24.9304H148.363ZM134.14 17.25C134.14 14.4886 136.379 12.25 139.14 12.25C140.466 12.25 141.738 12.7768 142.676 13.7145C143.613 14.6522 144.14 15.9239 144.14 17.25C144.14 20.0114 141.901 22.25 139.14 22.25C136.379 22.25 134.14 20.0114 134.14 17.25Z" fill="#1D1D1D"/>
</g>
<g clip-path="url(#clip1_0_24)">
<path d="M130.579 31.6321C137.138 31.1691 143.597 30.8774 150.239 30.8774" stroke="#FFCF08" stroke-width="0.754717" stroke-linejoin="round"/>
</g>
<defs>
<clipPath id="clip0_0_24">
<rect width="20" height="20" fill="white" transform="translate(130.39 8.5)"/>
</clipPath>
<clipPath id="clip1_0_24">
<rect width="20" height="1.50943" fill="white" transform="translate(130.39 30.5)"/>
</clipPath>
</defs>
</svg>
