<svg width="79" height="39" viewBox="0 0 79 39" fill="none" xmlns="http://www.w3.org/2000/svg">
<path d="M1.28601 15.86C1.28601 13.636 3.60601 12.692 5.47801 12.692C7.57402 12.692 9.41401 13.636 9.87802 15.86H8.29401C7.91002 14.532 6.56601 14.068 5.41401 14.068C4.51801 14.068 2.95001 14.468 2.95001 15.764C2.95001 16.788 3.75001 17.3 4.83802 17.54L6.18201 17.844C7.95801 18.228 10.086 18.9 10.086 21.236C10.086 23.492 7.97402 24.708 5.67001 24.708C2.93401 24.708 1.20601 23.204 0.902015 20.9H2.50201C2.80601 22.5 3.91001 23.332 5.70201 23.332C7.43002 23.332 8.40602 22.532 8.40602 21.38C8.40602 20.148 7.35002 19.668 5.91002 19.332L4.47002 19.028C2.87001 18.676 1.28601 17.78 1.28601 15.86ZM19.6264 20.676H13.0024C13.0504 22.532 14.3944 23.428 15.6584 23.428C16.9384 23.428 17.6424 22.852 18.0104 22.004H19.5144C19.1304 23.476 17.7544 24.708 15.6584 24.708C12.9384 24.708 11.4344 22.756 11.4344 20.212C11.4344 17.476 13.2584 15.748 15.6104 15.748C18.2504 15.748 19.8024 17.94 19.6264 20.676ZM15.6104 16.996C14.3304 16.996 13.1464 17.7 13.0184 19.428H18.0904C18.0424 18.212 17.1624 16.996 15.6104 16.996ZM26.6691 20.9V20.356C24.0291 20.612 22.3491 21.012 22.3491 22.196C22.3491 23.012 22.9731 23.556 24.0131 23.556C25.3731 23.556 26.6691 22.932 26.6691 20.9ZM23.6931 24.708C22.0771 24.708 20.7331 23.812 20.7331 22.228C20.7331 20.196 23.0371 19.588 26.5571 19.204V18.996C26.5571 17.412 25.6931 16.9 24.6051 16.9C23.3891 16.9 22.7011 17.54 22.6371 18.612H21.1331C21.2611 16.756 22.9251 15.716 24.5891 15.716C26.9731 15.716 28.0291 16.836 28.0131 19.268L27.9971 21.252C27.9811 22.708 28.0451 23.684 28.2211 24.5H26.7491C26.7011 24.18 26.6531 23.828 26.6371 23.316C26.1091 24.212 25.2291 24.708 23.6931 24.708ZM34.4706 15.86V17.412C34.1666 17.364 33.8946 17.348 33.6546 17.348C32.3106 17.348 31.6386 18.084 31.6386 19.988V24.5H30.1826V15.892H31.6066V17.396C32.0386 16.42 32.9026 15.892 34.0386 15.844C34.1826 15.844 34.2946 15.844 34.4706 15.86ZM39.2819 15.748C41.3939 15.748 42.6739 17.3 42.8819 18.772H41.4099C41.2019 17.748 40.3219 17.028 39.1859 17.028C37.9059 17.028 36.7059 18.036 36.7059 20.196C36.7059 22.372 37.9059 23.428 39.1859 23.428C40.4179 23.428 41.2659 22.596 41.4739 21.7H42.9779C42.6739 23.316 41.1539 24.708 39.1379 24.708C36.6579 24.708 35.1219 22.836 35.1219 20.212C35.1219 17.652 36.7379 15.748 39.2819 15.748ZM46.0761 12.9V17.188C46.5721 16.372 47.4041 15.748 48.8601 15.748C50.9401 15.748 51.6921 17.092 51.6921 19.06V24.5H50.2361V19.492C50.2361 18.164 50.0121 17.012 48.3481 17.012C46.9401 17.012 46.0761 17.972 46.0761 19.828V24.5H44.6201V12.9H46.0761Z" fill="#1D1D1D"/>
<g clip-path="url(#clip0_0_24)">
<path fill-rule="evenodd" clip-rule="evenodd" d="M67.1414 11.25C63.8277 11.25 61.1414 13.9363 61.1414 17.25C61.1414 20.5637 63.8277 23.25 67.1414 23.25C70.4551 23.25 73.1414 20.5637 73.1414 17.25C73.1414 15.6587 72.5092 14.1326 71.384 13.0074C70.2588 11.8821 68.7327 11.25 67.1414 11.25ZM59.6414 17.25C59.6414 13.1079 62.9993 9.75 67.1414 9.75C69.1305 9.75 71.0382 10.5402 72.4447 11.9467C73.8512 13.3532 74.6414 15.2609 74.6414 17.25C74.6414 21.3921 71.2835 24.75 67.1414 24.75C62.9993 24.75 59.6414 21.3921 59.6414 17.25ZM76.3634 24.9304L74.2345 23.212C73.9124 22.892 73.396 22.892 73.0739 23.212C72.9069 23.3802 72.813 23.6087 72.813 23.847C72.813 24.0854 72.9069 24.3139 73.0739 24.4821L74.8406 26.5069C75.2713 26.9422 75.9696 26.9422 76.4003 26.5069C76.831 26.0715 76.831 25.3657 76.4003 24.9304H76.3634ZM62.14 17.25C62.14 14.4886 64.3786 12.25 67.14 12.25C68.4661 12.25 69.7379 12.7768 70.6755 13.7145C71.6132 14.6521 72.14 15.9239 72.14 17.25C72.14 20.0114 69.9014 22.25 67.14 22.25C64.3786 22.25 62.14 20.0114 62.14 17.25Z" fill="#1D1D1D"/>
</g>
<g clip-path="url(#clip1_0_24)">
<path d="M58.5787 31.6321C65.1385 31.1691 71.5974 30.8774 78.2387 30.8774" stroke="#FFCF08" stroke-width="0.754717" stroke-linejoin="round"/>
</g>
<defs>
<clipPath id="clip0_0_24">
<rect width="20" height="20" fill="white" transform="translate(58.39 8.5)"/>
</clipPath>
<clipPath id="clip1_0_24">
<rect width="20" height="1.50943" fill="white" transform="translate(58.39 30.5)"/>
</clipPath>
</defs>
</svg>
