<svg width="119" height="49" viewBox="0 0 119 49" fill="none" xmlns="http://www.w3.org/2000/svg">
<g clip-path="url(#clip0_0_45)">
<path fill-rule="evenodd" clip-rule="evenodd" d="M18.08 32C18.08 31.8424 18.1286 31.6962 18.2117 31.5754C18.7542 30.7616 18.9464 30.4637 19.0283 30.2479C19.13 29.9799 19.1622 29.8638 19.176 29.7654C19.1898 29.6669 19.1907 29.5464 19.1667 29.2609C19.1597 29.1781 19.12 28.9901 19.0039 28.5954C18.893 28.2183 18.7306 27.7104 18.5086 27.0159C18.2662 26.2579 18.08 25.3894 18.08 24.5C18.08 19.9436 21.7737 16.25 26.33 16.25C30.8863 16.25 34.58 19.9436 34.58 24.5C34.58 29.0563 30.8863 32.75 26.33 32.75H18.83C18.4158 32.75 18.08 32.4142 18.08 32ZM26.33 28.6667C26.7902 28.6667 27.1633 28.2936 27.1633 27.8333C27.1633 27.3731 26.7902 27 26.33 27C25.8698 27 25.4967 27.3731 25.4967 27.8333C25.4967 28.2936 25.8698 28.6667 26.33 28.6667ZM26.33 21.9167C25.8238 21.9167 25.4133 22.3271 25.4133 22.8333V23.25C25.4133 23.6642 25.0776 24 24.6633 24C24.2491 24 23.9133 23.6642 23.9133 23.25V22.8333C23.9133 21.4987 24.9953 20.4167 26.33 20.4167C27.6647 20.4167 28.7467 21.4987 28.7467 22.8333V22.9344C28.7467 23.6022 28.4814 24.2426 28.0092 24.7148L26.8603 25.8637C26.5674 26.1566 26.0926 26.1566 25.7997 25.8637C25.5068 25.5708 25.5068 25.0959 25.7997 24.803L26.9486 23.6541C27.1394 23.4632 27.2467 23.2044 27.2467 22.9344V22.8333C27.2467 22.3271 26.8363 21.9167 26.33 21.9167Z" fill="#1D1D1D"/>
</g>
<path d="M45.6817 22.4C45.6817 20.315 47.8567 19.43 49.6117 19.43C51.5767 19.43 53.3017 20.315 53.7367 22.4H52.2517C51.8917 21.155 50.6317 20.72 49.5517 20.72C48.7117 20.72 47.2417 21.095 47.2417 22.31C47.2417 23.27 47.9917 23.75 49.0117 23.975L50.2717 24.26C51.9367 24.62 53.9317 25.25 53.9317 27.44C53.9317 29.555 51.9517 30.695 49.7917 30.695C47.2267 30.695 45.6067 29.285 45.3217 27.125H46.8217C47.1067 28.625 48.1417 29.405 49.8217 29.405C51.4417 29.405 52.3567 28.655 52.3567 27.575C52.3567 26.42 51.3667 25.97 50.0167 25.655L48.6667 25.37C47.1667 25.04 45.6817 24.2 45.6817 22.4ZM60.5994 30.5V29.345C60.1344 30.11 59.3994 30.695 58.0644 30.695C56.2044 30.695 55.4844 29.435 55.4844 27.59V22.43H56.8494V27.185C56.8494 28.43 57.0444 29.51 58.5444 29.51C59.8494 29.51 60.5994 28.61 60.5994 26.87V22.43H61.9644V30.5H60.5994ZM64.1297 22.43H65.4947V23.705C65.9897 22.85 66.8297 22.295 68.1347 22.295C69.9947 22.295 71.5847 23.855 71.5847 26.495C71.5847 29.18 69.9947 30.695 68.1347 30.695C66.8297 30.695 65.9897 30.14 65.4947 29.285V33.125H64.1297V22.43ZM65.4347 26.495C65.4347 28.625 66.5747 29.525 67.7897 29.525C69.1847 29.525 70.0997 28.43 70.0997 26.495C70.0997 24.56 69.1847 23.465 67.7897 23.465C66.5747 23.465 65.4347 24.365 65.4347 26.495ZM73.1825 22.43H74.5475V23.705C75.0425 22.85 75.8825 22.295 77.1875 22.295C79.0475 22.295 80.6375 23.855 80.6375 26.495C80.6375 29.18 79.0475 30.695 77.1875 30.695C75.8825 30.695 75.0425 30.14 74.5475 29.285V33.125H73.1825V22.43ZM74.4875 26.495C74.4875 28.625 75.6275 29.525 76.8425 29.525C78.2375 29.525 79.1525 28.43 79.1525 26.495C79.1525 24.56 78.2375 23.465 76.8425 23.465C75.6275 23.465 74.4875 24.365 74.4875 26.495ZM83.2824 26.495C83.2824 28.655 84.4524 29.495 85.6974 29.495C86.9424 29.495 88.1124 28.565 88.1124 26.495C88.1124 24.335 86.9424 23.495 85.6974 23.495C84.4524 23.495 83.2824 24.29 83.2824 26.495ZM85.6974 22.295C87.5724 22.295 89.5674 23.57 89.5674 26.495C89.5674 29.42 87.5724 30.695 85.6974 30.695C83.8224 30.695 81.8274 29.42 81.8274 26.495C81.8274 23.57 83.8224 22.295 85.6974 22.295ZM95.2201 22.4V23.855C94.9351 23.81 94.6801 23.795 94.4551 23.795C93.1951 23.795 92.5651 24.485 92.5651 26.27V30.5H91.2001V22.43H92.5351V23.84C92.9401 22.925 93.7501 22.43 94.8151 22.385C94.9501 22.385 95.0551 22.385 95.2201 22.4ZM96.9221 22.43V20.405H98.2871V22.43H99.8171V23.525H98.2871V28.31C98.2871 29.15 98.3471 29.36 99.1271 29.36H99.8171V30.5H98.8271C97.2821 30.5 96.9221 30.155 96.9221 28.475V23.525H95.6471V22.43H96.9221Z" fill="#1D1D1D"/>
<defs>
<clipPath id="clip0_0_45">
<rect width="20" height="20" fill="white" transform="translate(16.33 14.5)"/>
</clipPath>
</defs>
</svg>
