<svg width="40" height="40" viewBox="0 0 40 40" fill="none" xmlns="http://www.w3.org/2000/svg">
<path fill-rule="evenodd" clip-rule="evenodd" d="M3 17.5C3 18.6046 3.89543 19.5 5 19.5V20.7C5 25.1804 5 27.4206 5.87195 29.1319C6.39052 30.1497 7.11795 31.0388 8 31.745V34C8 35.3807 9.11929 36.5 10.5 36.5C11.8807 36.5 13 35.3807 13 34V33.4232C14.2571 33.5 15.8069 33.5 17.8 33.5H22.2C24.1931 33.5 25.7429 33.5 27 33.4232V34C27 35.3807 28.1193 36.5 29.5 36.5C30.8807 36.5 32 35.3807 32 34V31.745C32.8821 31.0388 33.6095 30.1497 34.1281 29.1319C35 27.4206 35 25.1804 35 20.7V19.5C36.1046 19.5 37 18.6046 37 17.5V15.5C37 14.3954 36.1046 13.5 35 13.5L34.9888 13.5C34.9522 10.7998 34.7959 9.1788 34.1281 7.86808C33.3611 6.36278 32.1372 5.13893 30.6319 4.37195C28.9206 3.5 26.6804 3.5 22.2 3.5H17.8C13.3196 3.5 11.0794 3.5 9.36808 4.37195C7.86278 5.13893 6.63894 6.36278 5.87195 7.86808C5.2041 9.1788 5.04777 10.7998 5.01118 13.5L5 13.5C3.89543 13.5 3 14.3954 3 15.5V17.5ZM11 27.5C12.1046 27.5 13 26.6046 13 25.5C13 24.3954 12.1046 23.5 11 23.5C9.89543 23.5 9 24.3954 9 25.5C9 26.6046 9.89543 27.5 11 27.5ZM29 27.5C30.1046 27.5 31 26.6046 31 25.5C31 24.3954 30.1046 23.5 29 23.5C27.8954 23.5 27 24.3954 27 25.5C27 26.6046 27.8954 27.5 29 27.5ZM9.43597 10.684C9 11.5397 9 12.6598 9 14.9V15.3C9 16.4201 9 16.9802 9.21799 17.408C9.40973 17.7843 9.7157 18.0903 10.092 18.282C10.5198 18.5 11.0799 18.5 12.2 18.5H27.8C28.9201 18.5 29.4802 18.5 29.908 18.282C30.2843 18.0903 30.5903 17.7843 30.782 17.408C31 16.9802 31 16.4201 31 15.3V14.9C31 12.6598 31 11.5397 30.564 10.684C30.1805 9.93139 29.5686 9.31947 28.816 8.93597C27.9603 8.5 26.8402 8.5 24.6 8.5H15.4C13.1598 8.5 12.0397 8.5 11.184 8.93597C10.4314 9.31947 9.81947 9.93139 9.43597 10.684Z" fill="#1D1D1D"/>
</svg>
