<svg width="40" height="40" viewBox="0 0 40 40" fill="none" xmlns="http://www.w3.org/2000/svg">
<path fill-rule="evenodd" clip-rule="evenodd" d="M17.5007 5.83366C17.5007 4.91318 18.2468 4.16699 19.1673 4.16699H21.4631C24.2896 4.16699 26.8089 5.94944 27.7497 8.61486L31.1824 18.3408C35.6232 18.5234 39.1673 22.1813 39.1673 26.667C39.1673 31.2694 35.4364 35.0003 30.834 35.0003C26.8025 35.0003 23.4397 32.1376 22.6674 28.3341H20.8724C20.8473 28.3347 20.8222 28.3347 20.7972 28.3341H10.0007C9.08018 28.3341 8.33398 27.5879 8.33398 26.6674C8.33398 25.7469 9.08018 25.0008 10.0007 25.0008H18.3064L14.735 16.6674H11.6673C10.7468 16.6674 10.0007 15.9212 10.0007 15.0008C10.0007 14.0803 10.7468 13.3341 11.6673 13.3341H15.7956C15.8207 13.3335 15.8458 13.3335 15.8708 13.3341H18.334C19.2545 13.3341 20.0007 14.0803 20.0007 15.0008C20.0007 15.9121 19.2693 16.6525 18.3615 16.6672L21.933 25.0008H22.6673C23.2372 22.1923 25.2195 19.8967 27.8405 18.8875L24.6064 9.72426C24.136 8.39155 22.8764 7.50033 21.4631 7.50033H19.1673C18.2468 7.50033 17.5007 6.75413 17.5007 5.83366ZM30.834 31.667C33.5954 31.667 35.834 29.4284 35.834 26.667C35.834 23.9056 33.5954 21.667 30.834 21.667C28.0726 21.667 25.834 23.9056 25.834 26.667C25.834 29.4284 28.0726 31.667 30.834 31.667Z" fill="black"/>
<path d="M13.2289 29.5837C12.3213 30.8454 10.8403 31.667 9.16732 31.667C6.40589 31.667 4.16732 29.4284 4.16732 26.667C4.16732 23.9056 6.40589 21.667 9.16732 21.667C10.8403 21.667 12.3213 22.4886 13.2289 23.7503H16.976C15.7937 20.5864 12.7436 18.3337 9.16732 18.3337C4.56494 18.3337 0.833984 22.0646 0.833984 26.667C0.833984 31.2694 4.56494 35.0003 9.16732 35.0003C12.7436 35.0003 15.7937 32.7476 16.976 29.5837H13.2289Z" fill="black"/>
</svg>
