<svg width="40" height="40" viewBox="0 0 40 40" fill="none" xmlns="http://www.w3.org/2000/svg">
<path fill-rule="evenodd" clip-rule="evenodd" d="M6.59471 11.1443C7.26834 8.15039 7.60515 6.65344 8.70081 5.77692C9.79646 4.90039 11.3308 4.90039 14.3996 4.90039H25.5996C28.6683 4.90039 30.2027 4.90039 31.2984 5.77692C32.394 6.65344 32.7308 8.15039 33.4045 11.1443L34.4746 15.9004H35.6996C36.0862 15.9004 36.3996 16.2138 36.3996 16.6004V19.2004C36.3996 19.587 36.0862 19.9004 35.6996 19.9004H34.9996V23.5671C34.9996 27.3383 34.9996 29.2239 33.828 30.3955C33.292 30.9314 32.6066 31.2222 31.6596 31.38V33.1003C31.6596 34.2049 30.7642 35.1003 29.6596 35.1003H28.6596C27.555 35.1003 26.6596 34.2049 26.6596 33.1003V31.567H13.3396V33.1003C13.3396 34.2049 12.4442 35.1003 11.3396 35.1003H10.3396C9.23508 35.1003 8.33965 34.2049 8.33965 33.1003V31.38C7.39258 31.2222 6.70715 30.9315 6.17116 30.3955C4.99959 29.2239 4.99959 27.3383 4.99959 23.567V20.0005H4.29961C3.91301 20.0005 3.59961 19.6871 3.59961 19.3005V16.7005C3.59961 16.3139 3.91301 16.0005 4.29961 16.0005H5.50207L6.59471 11.1443ZM10.2637 12.2726C10.6242 11.1596 10.8044 10.6031 11.2395 10.2349C11.6746 9.86669 12.2348 9.7837 13.3552 9.61772C15.2603 9.33551 17.9528 9.0005 19.9996 9.0005C22.0464 9.0005 24.7389 9.33551 26.644 9.61773C27.7644 9.7837 28.3246 9.86669 28.7597 10.2349C29.1948 10.6031 29.375 11.1596 29.7355 12.2726L30.6443 15.0783L30.6443 15.0783L30.6443 15.0784C31.1007 16.4874 31.3289 17.192 30.9732 17.6161C30.6176 18.0402 29.8745 17.9369 28.3883 17.7304C25.9345 17.3894 22.5723 17.0005 19.9996 17.0005C17.4269 17.0005 14.0647 17.3894 11.6109 17.7304C10.1248 17.9369 9.38168 18.0402 9.02602 17.6161C8.67036 17.192 8.89856 16.4874 9.35495 15.0783L10.2637 12.2726ZM12.3396 23.567C12.3396 24.6716 11.4441 25.567 10.3396 25.567C9.23499 25.567 8.33956 24.6716 8.33956 23.567C8.33956 22.4625 9.23499 21.567 10.3396 21.567C11.4441 21.567 12.3396 22.4625 12.3396 23.567ZM31.6595 23.567C31.6595 24.6716 30.7641 25.567 29.6595 25.567C28.555 25.567 27.6595 24.6716 27.6595 23.567C27.6595 22.4625 28.555 21.567 29.6595 21.567C30.7641 21.567 31.6595 22.4625 31.6595 23.567Z" fill="#1D1D1D"/>
</svg>
