<svg width="40" height="40" viewBox="0 0 40 40" fill="none" xmlns="http://www.w3.org/2000/svg">
<g clip-path="url(#clip0_0_343)">
<path fill-rule="evenodd" clip-rule="evenodd" d="M4.67309 8.33338C3.33334 10.6539 3.33334 13.7692 3.33334 20C3.33334 26.2308 3.33334 29.3462 4.67309 31.6667C5.55077 33.1869 6.81315 34.4493 8.33335 35.3269C10.6539 36.6667 13.7692 36.6667 20 36.6667C26.2308 36.6667 29.3462 36.6667 31.6667 35.3269C33.1869 34.4493 34.4493 33.1869 35.3269 31.6667C36.6667 29.3462 36.6667 26.2308 36.6667 20C36.6667 13.7692 36.6667 10.6539 35.3269 8.33338C34.4493 6.81318 33.1869 5.5508 31.6667 4.67312C29.3462 3.33337 26.2308 3.33337 20 3.33337C13.7692 3.33337 10.6539 3.33337 8.33335 4.67312C6.81315 5.5508 5.55077 6.81318 4.67309 8.33338ZM20 3.33337L19.398 11.9855C19.1215 15.9591 15.9591 19.1215 11.9855 19.398L3.33334 20L11.9855 20.602C15.9591 20.8785 19.1215 24.0409 19.398 28.0145L20 36.6667L20.602 28.0145C20.8785 24.0409 24.0409 20.8785 28.0145 20.602L36.6667 20L28.0145 19.398C24.0409 19.1215 20.8785 15.9591 20.602 11.9855L20 3.33337Z" fill="#1D1D1D" fill-opacity="0.5"/>
</g>
<defs>
<clipPath id="clip0_0_343">
<rect width="40" height="40" fill="white"/>
</clipPath>
</defs>
</svg>
