<svg width="24" height="24" viewBox="0 0 24 24" fill="none" xmlns="http://www.w3.org/2000/svg">
<path fill-rule="evenodd" clip-rule="evenodd" d="M10.3508 5.45537C8.65965 3.72582 5.87681 3.72581 4.1857 5.45537C2.54748 7.13082 2.54748 9.80799 4.18569 11.4834L11.7996 19.2704C11.9026 19.3757 12.072 19.3757 12.1749 19.2704L19.7888 11.4834C21.427 9.80799 21.427 7.13082 19.7888 5.45537C18.0977 3.72581 15.3149 3.72582 13.6237 5.45537L12.5235 6.5806C12.3824 6.72492 12.1891 6.80627 11.9873 6.80627C11.7854 6.80627 11.5921 6.72492 11.451 6.5806L10.3508 5.45537ZM20.8613 4.40669C23.0695 6.66508 23.0695 10.2737 20.8613 12.5321L13.2474 20.3191C12.5561 21.0261 11.4184 21.0261 10.7271 20.3191L3.11319 12.5321C0.904979 10.2737 0.90498 6.66508 3.11319 4.40669C5.3927 2.07537 9.14377 2.07537 11.4233 4.40669L11.9873 4.98349L12.5512 4.40669C14.8307 2.07538 18.5818 2.07537 20.8613 4.40669Z" fill="#1D1D1D"/>
</svg>
