<svg width="40" height="40" viewBox="0 0 40 40" fill="none" xmlns="http://www.w3.org/2000/svg">
<g clip-path="url(#clip0_0_356)">
<path fill-rule="evenodd" clip-rule="evenodd" d="M4.67306 8.33338C3.33331 10.6539 3.33331 13.7692 3.33331 20C3.33331 26.2308 3.33331 29.3462 4.67306 31.6667C5.55074 33.1869 6.81312 34.4492 8.33332 35.3269C10.6539 36.6667 13.7692 36.6667 20 36.6667C26.2308 36.6667 29.3462 36.6667 31.6667 35.3269C33.1869 34.4492 34.4492 33.1869 35.3269 31.6667C36.6667 29.3462 36.6667 26.2308 36.6667 20C36.6667 13.7692 36.6667 10.6539 35.3269 8.33338C34.4492 6.81318 33.1869 5.5508 31.6667 4.67312C29.3462 3.33337 26.2308 3.33337 20 3.33337C13.7692 3.33337 10.6539 3.33337 8.33332 4.67312C6.81312 5.5508 5.55074 6.81318 4.67306 8.33338ZM22.1493 15.1624C22.1493 13.9837 21.1854 13.0251 20.0001 13.0251C18.816 13.0251 17.851 13.9837 17.851 15.1624C17.851 16.3398 18.816 17.2986 20.0001 17.2986C21.1854 17.2986 22.1493 16.3398 22.1493 15.1624ZM25.1907 15.1624C25.1907 18.0079 22.8632 20.3224 20.0001 20.3224C17.1376 20.3224 14.8095 18.0079 14.8095 15.1624C14.8095 12.3155 17.1376 10 20.0001 10C22.8632 10 25.1907 12.3155 25.1907 15.1624ZM25.1142 23.2916C24.1759 23.8781 23.1568 24.2937 22.1001 24.5332L25.002 27.4187C25.5965 28.0088 25.5965 28.9666 25.002 29.5571C24.4082 30.1477 23.4455 30.1477 22.8523 29.5571L19.9995 26.7214L17.1492 29.5571C16.8519 29.8521 16.4625 29.9998 16.073 29.9998C15.6842 29.9998 15.2954 29.8521 14.9982 29.5571C14.4043 28.9666 14.4043 28.0093 14.9976 27.4187L17.8995 24.5332C16.8428 24.2937 15.8237 23.8773 14.8853 23.2916C14.175 22.8465 13.9615 21.9133 14.4092 21.2065C14.8556 20.4986 15.794 20.2856 16.5055 20.7308C18.6304 22.0599 21.368 22.0605 23.494 20.7308C24.2056 20.2856 25.144 20.4986 25.591 21.2065C26.0387 21.9128 25.8246 22.8465 25.1142 23.2916Z" fill="#1D1D1D" fill-opacity="0.5"/>
</g>
<defs>
<clipPath id="clip0_0_356">
<rect width="40" height="40" fill="white"/>
</clipPath>
</defs>
</svg>
