<svg width="40" height="40" viewBox="0 0 40 40" fill="none" xmlns="http://www.w3.org/2000/svg">
<g clip-path="url(#clip0_864_64383)">
<path d="M5.4248 11.6705L17.5054 18.2599L12.0248 23.6332C11.9314 23.6054 11.7968 23.5677 11.6283 23.5267C11.2906 23.4445 10.8153 23.3488 10.2634 23.2945C9.16534 23.1864 7.73434 23.2391 6.48256 23.9192C6.0865 24.1344 5.74339 24.389 5.48437 24.6052C5.06075 24.9588 5.21204 25.5769 5.65955 25.7913C6.83441 26.3543 9.31199 27.6335 10.6743 28.9861C12.0163 30.3185 13.2951 32.7341 13.8793 33.9255C14.1102 34.3964 14.7647 34.5141 15.107 34.0658C15.2717 33.8501 15.4636 33.5833 15.66 33.2773C16.4893 31.9857 16.5526 30.4843 16.4201 29.3292C16.3534 28.7488 16.2365 28.2477 16.1361 27.8914C16.086 27.7133 16.0399 27.5709 16.006 27.4722L21.3965 22.1487L27.9886 34.2343C28.2284 34.6739 28.8233 34.7595 29.1774 34.4055L30.253 33.3298C30.8168 32.766 31.0401 31.946 30.84 31.1742L27.0382 16.51L33.4189 10.1293C34.4947 9.05346 34.4947 7.31597 33.4189 6.24017C32.3431 5.16438 30.6056 5.16438 29.5298 6.24017L23.1491 12.6209L8.48492 8.81904C7.71312 8.61895 6.89306 8.84226 6.32927 9.40605L5.25361 10.4817C4.89956 10.8358 4.98524 11.4307 5.4248 11.6705Z" fill="#1D1D1D" stroke="#1D1D1D" stroke-width="0.5"/>
</g>
<defs>
<clipPath id="clip0_864_64383">
<rect width="40" height="40" fill="white"/>
</clipPath>
</defs>
</svg>
