<svg width="40" height="40" viewBox="0 0 40 40" fill="none" xmlns="http://www.w3.org/2000/svg">
<path d="M16.666 6.50065C16.666 5.58018 17.4122 4.83398 18.3327 4.83398H20.5797C23.4379 4.83398 25.9781 6.65598 26.8945 9.36333L31.0587 21.6667H31.666C35.3479 21.6667 38.3327 24.6514 38.3327 28.3333C38.3327 32.0152 35.3479 35 31.666 35H31.2115C28.1954 35 25.6814 32.8506 25.1175 30H8.33268C7.41221 30 6.66602 29.2538 6.66602 28.3333C6.66602 27.4129 7.41221 26.6667 8.33268 26.6667H26.2115C27.383 26.6667 28.3327 27.6164 28.3327 28.7879C28.3327 30.3778 29.6216 31.6667 31.2115 31.6667H31.666C33.507 31.6667 34.9993 30.1743 34.9993 28.3333C34.9993 26.6746 33.7878 25.2989 32.2014 25.0428L33.0781 27.633C33.3732 28.5049 32.9056 29.4509 32.0337 29.746C31.1618 30.0411 30.2158 29.5735 29.9207 28.7016L23.7371 10.432C23.2789 9.07831 22.0088 8.16732 20.5797 8.16732H18.3327C17.4122 8.16732 16.666 7.42113 16.666 6.50065Z" fill="black"/>
<path d="M14.3292 25.4167C13.2472 23.1965 10.9686 21.6667 8.33268 21.6667C4.65078 21.6667 1.66602 24.6514 1.66602 28.3333C1.66602 32.0152 4.65078 35 8.33268 35C10.9686 35 13.2472 33.4702 14.3292 31.25H11.242C10.7331 31.25 10.2322 31.3562 9.73102 31.4625C9.39616 31.5335 9.06114 31.6046 8.72345 31.644C8.59528 31.659 8.46488 31.6667 8.33268 31.6667C6.49173 31.6667 4.99935 30.1743 4.99935 28.3333C4.99935 26.4924 6.49173 25 8.33268 25C8.46488 25 8.59528 25.0077 8.72345 25.0227C9.06114 25.0621 9.39615 25.1331 9.731 25.2042C10.2322 25.3104 10.7331 25.4167 11.242 25.4167H14.3292Z" fill="black"/>
</svg>
