<svg width="40" height="40" viewBox="0 0 40 40" fill="none" xmlns="http://www.w3.org/2000/svg">
<g clip-path="url(#clip0_0_346)">
<path d="M26.6667 3.33337H13.3334C7.81053 3.33337 3.33337 7.81053 3.33337 13.3334V26.6667C3.33337 32.1895 7.81053 36.6667 13.3334 36.6667H26.6667C32.1895 36.6667 36.6667 32.1895 36.6667 26.6667V13.3334C36.6667 7.81053 32.1895 3.33337 26.6667 3.33337Z" fill="#1D1D1D" fill-opacity="0.5"/>
<path opacity="0.6" d="M21.0727 23.8409L16.9475 27.833C16.5164 28.2502 15.7963 28.0608 15.6263 27.4854L13.8332 21.4167L26.1666 14.0833L21.2267 23.6339C21.1869 23.7108 21.1349 23.7807 21.0727 23.8409Z" fill="#FAEFDB"/>
<mask id="mask0_0_346" style="mask-type:alpha" maskUnits="userSpaceOnUse" x="13" y="14" width="14" height="15">
<path d="M21.0727 23.8409L16.9475 27.833C16.5164 28.2502 15.7963 28.0608 15.6263 27.4854L13.8332 21.4167L26.1666 14.0833L21.2267 23.6339C21.1869 23.7108 21.1349 23.7807 21.0727 23.8409Z" fill="white"/>
</mask>
<g mask="url(#mask0_0_346)">
<path opacity="0.6" d="M16.6666 22.9166L19.729 25.1438L16.1666 28.5832L16.6666 22.9166Z" fill="#FAEFDB"/>
</g>
<path d="M28.6322 10.9236L8.46333 18.3988C7.7387 18.6674 7.78001 19.706 8.52368 19.9161L13.8333 21.4167L26.1667 14.0834L16.6666 22.9167L24.8432 28.8633C25.3097 29.2025 25.9708 28.9507 26.0933 28.3871L29.6901 11.8421C29.8241 11.2255 29.2238 10.7043 28.6322 10.9236Z" fill="#FAEFDB"/>
</g>
<defs>
<clipPath id="clip0_0_346">
<rect width="40" height="40" fill="white"/>
</clipPath>
</defs>
</svg>
