<svg width="40" height="40" viewBox="0 0 40 40" fill="none" xmlns="http://www.w3.org/2000/svg">
<path fill-rule="evenodd" clip-rule="evenodd" d="M7.02734 17.8529C7.02734 11.9182 7.02734 8.9509 8.78364 7.03834C8.91162 6.89898 9.04547 6.76513 9.18483 6.63716C11.0974 4.88086 14.0647 4.88086 19.9994 4.88086C25.934 4.88086 28.9014 4.88086 30.8139 6.63716C30.9533 6.76513 31.0871 6.89898 31.2151 7.03834C32.9714 8.9509 32.9714 11.9182 32.9714 17.8529V22.5664C32.9714 28.5011 32.9714 31.4684 31.2151 33.381C31.0871 33.5203 30.9533 33.6542 30.8139 33.7822C29.7305 34.7771 27.0741 35.2182 24.8983 35.4057L26.7686 37.5929C27.2921 38.205 27.2202 39.1256 26.6081 39.649C25.996 40.1725 25.0754 40.1006 24.5519 39.4885L21.1737 35.5379C20.7956 35.5385 20.4044 35.5385 19.9994 35.5385C19.4222 35.5385 19.1442 35.5423 18.9369 35.5452C18.6484 35.5492 18.4969 35.5513 17.8664 35.5385L16.8252 36.7468L14.5186 39.482C13.9994 40.0977 13.0794 40.176 12.4637 39.6567L12.444 39.6399C12.3403 39.577 12.2595 39.4821 12.1997 39.3653C11.8385 38.8378 11.8567 38.1143 12.2889 37.6017L14.1402 35.4065C12.1236 35.2105 10.2371 34.7484 9.18483 33.7822C9.04547 33.6542 8.91162 33.5203 8.78364 33.381C7.02734 31.4684 7.02734 28.5011 7.02734 22.5664V17.8529ZM10.0547 17.0519C10.0547 16.2775 10.0547 15.8902 10.1187 15.5682C10.3818 14.2459 11.4154 13.2123 12.7377 12.9493C13.0597 12.8852 13.4469 12.8852 14.2214 12.8852H18.8047V21.2185H14.2214C13.4469 21.2185 13.0597 21.2185 12.7377 21.1545C11.4154 20.8915 10.3818 19.8578 10.1187 18.5355C10.0547 18.2135 10.0547 17.8263 10.0547 17.0519ZM21.3047 21.2185H25.888C26.6624 21.2185 27.0497 21.2185 27.3717 21.1545C28.694 20.8915 29.7276 19.8578 29.9906 18.5355C30.0547 18.2135 30.0547 17.8263 30.0547 17.0519C30.0547 16.2775 30.0547 15.8902 29.9906 15.5682C29.7276 14.2459 28.694 13.2123 27.3717 12.9493C27.0497 12.8852 26.6624 12.8852 25.888 12.8852H21.3047V21.2185ZM13.388 26.2185C13.388 27.139 12.6418 27.8852 11.7214 27.8852C10.8009 27.8852 10.0547 27.139 10.0547 26.2185C10.0547 25.2981 10.8009 24.5519 11.7214 24.5519C12.6418 24.5519 13.388 25.2981 13.388 26.2185ZM28.388 27.8852C29.3085 27.8852 30.0547 27.139 30.0547 26.2185C30.0547 25.2981 29.3085 24.5519 28.388 24.5519C27.4675 24.5519 26.7214 25.2981 26.7214 26.2185C26.7214 27.139 27.4675 27.8852 28.388 27.8852Z" fill="#1D1D1D"/>
</svg>
