<svg width="40" height="40" viewBox="0 0 40 40" fill="none" xmlns="http://www.w3.org/2000/svg">
<g clip-path="url(#clip0_0_340)">
<path fill-rule="evenodd" clip-rule="evenodd" d="M4.67306 8.33338C3.33331 10.6539 3.33331 13.7692 3.33331 20C3.33331 26.2308 3.33331 29.3462 4.67306 31.6667C5.55074 33.1869 6.81312 34.4492 8.33331 35.3269C10.6538 36.6667 13.7692 36.6667 20 36.6667C26.2308 36.6667 29.3461 36.6667 31.6666 35.3269C33.1868 34.4492 34.4492 33.1869 35.3269 31.6667C36.6666 29.3462 36.6666 26.2308 36.6666 20C36.6666 13.7692 36.6666 10.6539 35.3269 8.33338C34.4492 6.81318 33.1868 5.5508 31.6666 4.67312C29.3461 3.33337 26.2308 3.33337 20 3.33337C13.7692 3.33337 10.6538 3.33337 8.33331 4.67312C6.81312 5.5508 5.55074 6.81318 4.67306 8.33338ZM9.58334 13.75H12.0139C12.6351 13.75 12.8687 14.0219 13.1017 14.6949C14.2904 18.1577 16.2948 21.184 17.1187 21.184C17.4277 21.184 17.5695 21.0417 17.5695 20.2569V16.6777C17.5137 15.6588 17.1578 15.2182 16.8941 14.8919C16.7314 14.6903 16.6038 14.5324 16.6038 14.3087C16.6038 14.0368 16.836 13.75 17.2222 13.75H21.0417C21.5567 13.75 21.7361 14.0254 21.7361 14.6435V19.4587C21.7361 19.9737 21.9597 20.1539 22.1142 20.1539C22.4232 20.1539 22.6807 19.9737 23.2472 19.4072C24.9982 17.4502 26.2342 14.4374 26.2342 14.4374C26.3888 14.0769 26.6737 13.75 27.2917 13.75H29.7222C30.4573 13.75 30.6117 14.1284 30.4573 14.6435C30.1703 15.9585 27.5965 19.6493 27.2302 20.1699L27.187 20.2312C26.9295 20.6431 26.8265 20.8492 27.187 21.3126C27.3139 21.4904 27.5848 21.7558 27.8948 22.0594C28.2135 22.3716 28.5735 22.7242 28.8607 23.0637C29.9048 24.2382 30.6916 25.2291 30.9108 25.912C31.1111 26.5972 30.7639 26.9445 30.0694 26.9445H27.6389C26.9879 26.9445 26.6601 26.5798 25.9517 25.7918C25.6514 25.4578 25.2828 25.0477 24.7922 24.5572C23.3502 23.1667 22.7322 22.9864 22.3717 22.9864C21.8825 22.9864 21.7361 23.125 21.7361 23.8195V25.9992C21.7361 26.5972 21.545 26.9445 20 26.9445C17.425 26.9445 14.5952 25.3811 12.5867 22.4972C9.57401 18.2742 8.75 15.0812 8.75 14.4374C8.75 14.0769 8.8889 13.75 9.58334 13.75Z" fill="#1D1D1D" fill-opacity="0.5"/>
</g>
<defs>
<clipPath id="clip0_0_340">
<rect width="40" height="40" fill="white"/>
</clipPath>
</defs>
</svg>
