<svg width="40" height="40" viewBox="0 0 40 40" fill="none" xmlns="http://www.w3.org/2000/svg">
<path d="M22.5 8.33366C24.3333 8.33366 25.8333 6.83366 25.8333 5.00033C25.8333 3.16699 24.3333 1.66699 22.5 1.66699C20.6667 1.66699 19.1667 3.16699 19.1667 5.00033C19.1667 6.83366 20.6667 8.33366 22.5 8.33366ZM16.3333 14.0003L12.0667 35.517C11.85 36.5337 12.65 37.5003 13.7 37.5003H13.8333C14.6167 37.5003 15.2833 36.967 15.4667 36.2003L18.1667 24.167L21.6667 27.5003V35.8337C21.6667 36.7503 22.4167 37.5003 23.3333 37.5003C24.25 37.5003 25 36.7503 25 35.8337V26.4337C25 25.517 24.6333 24.6503 23.9667 24.017L21.5 21.667L22.5 16.667C24.2833 18.7337 26.8667 20.217 29.7667 20.6837C30.7667 20.8337 31.6667 20.0337 31.6667 19.017C31.6667 18.2003 31.0667 17.517 30.25 17.3837C27.7167 16.967 25.6167 15.467 24.5 13.5003L22.8333 10.8337C21.9 9.35033 20.0333 8.75033 18.4167 9.43366L12.0333 12.1337C10.8 12.667 10 13.867 10 15.217V19.167C10 20.0837 10.75 20.8337 11.6667 20.8337C12.5833 20.8337 13.3333 20.0837 13.3333 19.167V15.167L16.3333 14.0003Z" fill="#1D1D1D"/>
</svg>
