<svg width="40" height="40" viewBox="0 0 40 40" fill="none" xmlns="http://www.w3.org/2000/svg">
<g clip-path="url(#clip0_0_337)">
<path fill-rule="evenodd" clip-rule="evenodd" d="M4.67306 8.33338C3.33331 10.6539 3.33331 13.7692 3.33331 20C3.33331 26.2308 3.33331 29.3462 4.67306 31.6667C5.55074 33.1869 6.81312 34.4492 8.33331 35.3269C10.6538 36.6667 13.7692 36.6667 20 36.6667C26.2308 36.6667 29.3461 36.6667 31.6666 35.3269C33.1868 34.4492 34.4492 33.1869 35.3269 31.6667C36.6666 29.3462 36.6666 26.2308 36.6666 20C36.6666 13.7692 36.6666 10.6539 35.3269 8.33338C34.4492 6.81318 33.1868 5.5508 31.6666 4.67312C29.3461 3.33337 26.2308 3.33337 20 3.33337C13.7692 3.33337 10.6538 3.33337 8.33331 4.67312C6.81312 5.5508 5.55074 6.81318 4.67306 8.33338ZM26.2956 20.6088L16.2956 27.2754C16.1701 27.3591 16.0242 27.4072 15.8736 27.4145C15.7229 27.4218 15.5731 27.388 15.4401 27.3169C15.3071 27.2457 15.1959 27.1397 15.1184 27.0103C15.0409 26.8809 15 26.7329 15 26.5821V13.2487C15 13.0979 15.0409 12.9499 15.1184 12.8205C15.1959 12.6911 15.3071 12.5851 15.4401 12.514C15.5731 12.4428 15.7229 12.4091 15.8736 12.4164C16.0242 12.4236 16.1701 12.4717 16.2956 12.5554L26.2956 19.2221C26.4097 19.2981 26.5033 19.4012 26.5681 19.5222C26.6328 19.6432 26.6667 19.7782 26.6667 19.9154C26.6667 20.0526 26.6328 20.1877 26.5681 20.3086C26.5033 20.4296 26.4097 20.5327 26.2956 20.6088Z" fill="#1D1D1D" fill-opacity="0.5"/>
</g>
<defs>
<clipPath id="clip0_0_337">
<rect width="40" height="40" fill="white"/>
</clipPath>
</defs>
</svg>
