<svg width="36" height="28" viewBox="0 0 36 28" fill="none" xmlns="http://www.w3.org/2000/svg">
<path d="M7.368 5V23H4.128V10.352H0.6V8.312C3.192 8.312 4.464 7.4 4.464 5H7.368Z" fill="#1D1D1D"/>
<path fill-rule="evenodd" clip-rule="evenodd" d="M24.6734 3.66974C24.5474 3.41283 24.2862 3.25 24 3.25C23.7139 3.25 23.4527 3.41283 23.3267 3.66974L20.5004 9.43218L14.8908 10.258C14.6101 10.2993 14.3767 10.4955 14.2878 10.765C14.1989 11.0345 14.2697 11.331 14.4707 11.5313L18.6768 15.7218L17.2686 21.9241C17.2041 22.2085 17.3102 22.5044 17.5406 22.683C17.7711 22.8616 18.0842 22.8904 18.3434 22.7569L24 19.8436L29.6566 22.7569C29.9158 22.8904 30.2289 22.8616 30.4594 22.683C30.6899 22.5044 30.796 22.2085 30.7314 21.9241L29.3233 15.7218L33.5294 11.5313C33.7304 11.331 33.8012 11.0345 33.7123 10.765C33.6234 10.4955 33.39 10.2993 33.1093 10.258L27.4996 9.43218L24.6734 3.66974Z" fill="#1D1D1D"/>
</svg>
