<svg width="42" height="28" viewBox="0 0 42 28" fill="none" xmlns="http://www.w3.org/2000/svg">
<path d="M14.232 19.88V23H1.68V20.12C7.296 15.224 10.344 13.184 10.344 10.52C10.344 8.72 9.288 7.736 7.752 7.736C5.904 7.736 4.992 9.152 4.968 11.72H1.512C1.536 9.608 2.136 7.928 3.312 6.656C4.488 5.384 6.048 4.76 7.944 4.76C11.376 4.76 13.896 6.992 13.896 9.968C13.896 12.608 13.056 14.408 6.24 19.88H14.232Z" fill="#1D1D1D"/>
<path fill-rule="evenodd" clip-rule="evenodd" d="M30.6734 3.66974C30.5474 3.41283 30.2862 3.25 30 3.25C29.7139 3.25 29.4527 3.41283 29.3267 3.66974L26.5004 9.43218L20.8908 10.258C20.6101 10.2993 20.3767 10.4955 20.2878 10.765C20.1989 11.0345 20.2697 11.331 20.4707 11.5313L24.6768 15.7218L23.2686 21.9241C23.2041 22.2085 23.3102 22.5044 23.5406 22.683C23.7711 22.8616 24.0842 22.8904 24.3434 22.7569L30 19.8436L35.6566 22.7569C35.9158 22.8904 36.2289 22.8616 36.4594 22.683C36.6899 22.5044 36.796 22.2085 36.7314 21.9241L35.3233 15.7218L39.5294 11.5313C39.7304 11.331 39.8012 11.0345 39.7123 10.765C39.6234 10.4955 39.39 10.2993 39.1093 10.258L33.4996 9.43218L30.6734 3.66974Z" fill="#1D1D1D"/>
</svg>
