<svg width="42" height="28" viewBox="0 0 42 28" fill="none" xmlns="http://www.w3.org/2000/svg">
<path d="M1.344 17.072V16.904H4.752V17.072C4.752 19.208 6.192 20.408 8.04 20.408C9.96 20.408 10.992 19.184 10.992 17.624C10.992 15.992 9.792 14.888 7.392 14.888H5.592V12.848H7.224C10.032 12.848 10.44 11.264 10.44 10.112C10.44 8.744 9.384 7.568 7.728 7.568C6.288 7.568 5.016 8.672 5.016 10.376V10.592H1.608V10.496C1.608 7.112 4.248 4.76 7.896 4.76C11.424 4.76 13.992 6.728 13.992 9.416C13.992 11.144 13.08 12.656 11.28 13.64C13.488 14.528 14.544 16.184 14.544 17.984C14.544 21.008 11.928 23.24 8.04 23.24C4.224 23.24 1.344 21.104 1.344 17.072Z" fill="#1D1D1D"/>
<path fill-rule="evenodd" clip-rule="evenodd" d="M30.6734 3.66974C30.5474 3.41283 30.2862 3.25 30 3.25C29.7139 3.25 29.4527 3.41283 29.3267 3.66974L26.5004 9.43218L20.8908 10.258C20.6101 10.2993 20.3767 10.4955 20.2878 10.765C20.1989 11.0345 20.2697 11.331 20.4707 11.5313L24.6768 15.7218L23.2686 21.9241C23.2041 22.2085 23.3102 22.5044 23.5406 22.683C23.7711 22.8616 24.0842 22.8904 24.3434 22.7569L30 19.8436L35.6566 22.7569C35.9158 22.8904 36.2289 22.8616 36.4594 22.683C36.6899 22.5044 36.796 22.2085 36.7314 21.9241L35.3233 15.7218L39.5294 11.5313C39.7304 11.331 39.8012 11.0345 39.7123 10.765C39.6234 10.4955 39.39 10.2993 39.1093 10.258L33.4996 9.43218L30.6734 3.66974Z" fill="#1D1D1D"/>
</svg>
