<svg width="44" height="28" viewBox="0 0 44 28" fill="none" xmlns="http://www.w3.org/2000/svg">
<path d="M15.668 16.16V19.016H12.26V23H9.02V19.016H1.34V16.16L9.02 5H12.26V16.16H15.668ZM4.052 16.16H9.02V8.984L4.052 16.16Z" fill="#1D1D1D"/>
<path fill-rule="evenodd" clip-rule="evenodd" d="M32.1734 3.66974C32.0474 3.41283 31.7862 3.25 31.5 3.25C31.2139 3.25 30.9527 3.41283 30.8267 3.66974L28.0004 9.43218L22.3908 10.258C22.1101 10.2993 21.8767 10.4955 21.7878 10.765C21.6989 11.0345 21.7697 11.331 21.9707 11.5313L26.1768 15.7218L24.7686 21.9241C24.7041 22.2085 24.8102 22.5044 25.0406 22.683C25.2711 22.8616 25.5842 22.8904 25.8434 22.7569L31.5 19.8436L37.1566 22.7569C37.4158 22.8904 37.7289 22.8616 37.9594 22.683C38.1899 22.5044 38.296 22.2085 38.2314 21.9241L36.8233 15.7218L41.0294 11.5313C41.2304 11.331 41.3012 11.0345 41.2123 10.765C41.1234 10.4955 40.89 10.2993 40.6093 10.258L34.9996 9.43218L32.1734 3.66974Z" fill="#1D1D1D"/>
</svg>
