<svg width="42" height="28" viewBox="0 0 42 28" fill="none" xmlns="http://www.w3.org/2000/svg">
<path d="M1.104 19.04L4.152 17.552C4.896 19.184 6.192 20.24 7.752 20.24C9.648 20.24 10.8 18.992 10.8 17.072C10.8 15.152 9.552 13.88 7.704 13.88C6.552 13.88 5.376 14.432 4.68 15.368L2.016 14.24L3.552 5H13.752L13.248 8.12H5.952L5.28 11.984C6.216 11.432 7.248 11.24 8.304 11.24C11.664 11.24 14.304 13.4 14.304 16.976C14.304 20.576 11.688 23.24 7.824 23.24C4.344 23.24 2.088 21.44 1.104 19.04Z" fill="#1D1D1D"/>
<path fill-rule="evenodd" clip-rule="evenodd" d="M30.6734 3.66974C30.5474 3.41283 30.2862 3.25 30 3.25C29.7139 3.25 29.4527 3.41283 29.3267 3.66974L26.5004 9.43218L20.8908 10.258C20.6101 10.2993 20.3767 10.4955 20.2878 10.765C20.1989 11.0345 20.2697 11.331 20.4707 11.5313L24.6768 15.7218L23.2686 21.9241C23.2041 22.2085 23.3102 22.5044 23.5406 22.683C23.7711 22.8616 24.0842 22.8904 24.3434 22.7569L30 19.8436L35.6566 22.7569C35.9158 22.8904 36.2289 22.8616 36.4594 22.683C36.6899 22.5044 36.796 22.2085 36.7314 21.9241L35.3233 15.7218L39.5294 11.5313C39.7304 11.331 39.8012 11.0345 39.7123 10.765C39.6234 10.4955 39.39 10.2993 39.1093 10.258L33.4996 9.43218L30.6734 3.66974Z" fill="#1D1D1D"/>
</svg>
